<svg id="Calque_1" data-name="Calque 1" xmlns="http://www.w3.org/2000/svg" viewBox="0 0 213 294"><defs><style>.cls-1{fill:#586f6b;}.cls-2{fill:#fff;}.cls-3{fill:#cfc0bd;}.cls-4{isolation:isolate;font-size:12px;font-family:SegoeScript, Segoe Script;}.cls-5{fill:#f9bba7;}.cls-5,.cls-6{stroke:#000;stroke-miterlimit:10;}.cls-6{fill:#fec9b8;}.cls-7{fill:#1b1b1b;}</style></defs><g id="Calque_2" data-name="Calque 2"><g id="Calque_1-2" data-name="Calque 1-2"><path class="cls-1" d="M3,292V30.09A28.12,28.12,0,0,1,31.09,2H212V263.35A28.68,28.68,0,0,1,183.35,292Z" transform="translate(-1)"/><path class="cls-2" d="M210,4V263.35A26.67,26.67,0,0,1,183.35,290H5V30.09A26.13,26.13,0,0,1,31.09,4H210m4-4H31.09A30.09,30.09,0,0,0,1,30.09H1V294H183.35A30.65,30.65,0,0,0,214,263.35Z" transform="translate(-1)"/><path class="cls-3" d="M23.12,277.88V46.62a30.53,30.53,0,0,1,30.5-30.5H192.88V247.39a30.53,30.53,0,0,1-30.49,30.49Z" transform="translate(-1)"/><path d="M192.75,16.25V247.39a30.4,30.4,0,0,1-30.36,30.36H23.25V46.62A30.4,30.4,0,0,1,53.62,16.25H192.75M193,16H53.62A30.62,30.62,0,0,0,23,46.62V278H162.39A30.6,30.6,0,0,0,193,247.41V16Z" transform="translate(-1)"/><text class="cls-4" transform="translate(59.81 46.03)">Ciseaux-Scissors</text><text class="cls-4" transform="translate(162.34 253.93) rotate(180)">Ciseaux-Scissors</text><path class="cls-5" d="M77.91,125.36c.78-3.35,1.54-6.71,2.35-10.06,1-4,3.65-6.3,7.32-6.38s6.42,1.94,7.71,5.88l.53,1.7c.53-2.23,1-3.82,1.28-5.42a7.63,7.63,0,0,1,5.48-6.39,7.43,7.43,0,0,1,8.23,2.45,5.6,5.6,0,0,0,.74.54c1.08-2.23.6-4.57.77-6.76.5-6.44.76-12.9,1.05-19.35.2-4.62,3.61-8.18,7.83-8a7.84,7.84,0,0,1,7.64,8c0,.13,0,.26,0,.39-.29,7.81-.77,15.61-1.17,23.41-.26,5-.54,10-.34,15.11L137.83,102c2.63-4.66,5.32-9.28,7.82-14,1.88-3.57,4.28-6.33,8.66-6,4.55.37,6.5,3.52,7.3,7.63l-.9,3.74c-3.32,4.87-5.89,10.17-8.83,15.25-3.91,6.75-7.67,13.59-11.49,20.39-6.85-1.64-13.73-3.17-20.54-4.95-3.11-.81-6-.89-8.71.91.09-2.08.19-4.17.28-6.25h-.22l-2.39,10c-1.32,4.36-4,6.59-8,6.55-3.74,0-6.27-2.46-7.76-7.49a3.56,3.56,0,0,0-.53.41c-4,5.09-10.33,4.59-13.47-1.07C78.76,126.46,78.77,125.6,77.91,125.36Z" transform="translate(-1)"/><path class="cls-6" d="M111.3,124.26c2.61-1.25,5.44-1,8.55-.23,6.82,1.74,13.69,3.31,20.54,4.95,2.81.66,5.65,1.19,7.47,3.47a5.31,5.31,0,0,1,1.34,4.69c-2.11,8.79-4,17.65-6.42,26.36-1.63,5.87-6.74,9.32-14.24,10.42-1.7.25-2.22.77-2.5,2-3.49,14.69-7.07,29.36-10.49,44.06-.43,1.87-1.23,2.08-3.53,1.51-12.68-3.13-25.39-6.14-38.09-9.19-3-.71-3-.71-2.39-3.06,3.48-14.5,6.94-29,10.49-43.5.35-1.44-.07-2.31-1.59-3.41-6.28-4.57-9-10-7.57-16.13,1.83-7.8,3.76-15.56,5.65-23.34.87.22.9.89,1.26,1.37,3.4,4.56,9.65,5.3,13.36,1.56a2.25,2.25,0,0,1,.5-.29c1.74,4,4.37,6,8.06,6.23,3.87.24,6.43-1.34,7.5-4.65Zm13.54,10c-2.72-.65-5.44-1.32-8.17-1.95s-4.38,0-4.83,1.76.71,3.26,3.46,3.94c3.34.83,6.69,1.61,10,2.42,3.1.74,3.58,1.53,2.37,3.7-.53,1-1.76.78-2.75.93C117,146.24,112.33,150.14,110,156c-.69,1.75.47,3.44,2.49,4,2.5.72,4.29,0,4.89-1.91a7.66,7.66,0,0,1,.87-2.21c2.51-3.69,6.59-5.34,12.13-5.22,1.63,0,3-.28,3.56-1.67a24.89,24.89,0,0,0,2.15-8.82c0-2.25-.76-3.34-3.63-4-2.5-.56-5.09-1.16-7.66-1.78Z" transform="translate(-1)"/><path class="cls-5" d="M124.85,133c2.72.66,5.45,1.29,8.16,2,3,.75,3.87,2,3.78,4.56a30.77,30.77,0,0,1-2.46,10.11c-.62,1.6-2.09,2-3.82,2-5.9,0-10.27,1.94-13,6.2a9.54,9.54,0,0,0-1,2.53c-.68,2.23-2.6,3.06-5.24,2.29-2.14-.63-3.34-2.55-2.57-4.56,2.55-6.7,7.59-11.24,16-12.75,1.07-.19,2.36,0,3-1.12,1.33-2.5.83-3.39-2.45-4.18-3.55-.85-7.1-1.68-10.63-2.56-2.91-.72-4.16-2.29-3.6-4.43s2.34-2.76,5.16-2.11S122,132.31,124.85,133Z" transform="translate(-1)"/><path class="cls-7" d="M188.72,31.54a1,1,0,0,1-.09.33,2,2,0,0,1-1.45,1.32l-.51.12h-.89a5,5,0,0,1-1.71-.37,3.76,3.76,0,0,1-.93-.59h0v-.14c.17-.22.32-.44.47-.67s.29-.39.42-.59.07,0,.1,0a2.46,2.46,0,0,0,.7.45,1,1,0,0,0,.34.14,2.52,2.52,0,0,0,1.12.15.82.82,0,0,0,.37-.13.26.26,0,0,0,.09-.37.2.2,0,0,0-.09-.09.72.72,0,0,0-.19-.11,3.57,3.57,0,0,0-.72-.16l-.89-.2-.15-.05a2.14,2.14,0,0,1-1.22-.86.39.39,0,0,1-.05-.45,1.74,1.74,0,0,0,.14-.38q.18-.45.33-.9l.14-.38v-.09a.43.43,0,0,1,.27-.4l.5-.19a5.31,5.31,0,0,1,.89-.13,6.64,6.64,0,0,1,.89.05,5.54,5.54,0,0,1,.89.23l.14.06a5.07,5.07,0,0,1,.72.4h.05c.11.06.11.12,0,.22l-.75,1c-.07.06-.11.17-.19.23a3,3,0,0,0-1.78-.62.69.69,0,0,0-.4.08.27.27,0,0,0-.1.37.24.24,0,0,0,.1.1.69.69,0,0,0,.28.11c.31.08.62.13.94.18s.6.15.9.25l.16.07a1.76,1.76,0,0,1,1,1A2.19,2.19,0,0,1,188.72,31.54Z" transform="translate(-1)"/><path class="cls-7" d="M181.32,33.56l-.23.62-.31.86c-.23.58-.44,1.16-.65,1.75a.11.11,0,0,0,0,.08c0,.11-.09.13-.18.13h-.32c-.16,0-.16,0-.11-.17h0l.12-.32.51-1.4c.13-.3.24-.61.34-.92s.32-.84.47-1.27a2.84,2.84,0,0,0,.17-.49,5,5,0,0,0,.25-.64,1.13,1.13,0,0,0,.08-.24.94.94,0,0,1,.1-.28c0-.09.11-.15.06-.21s-.15,0-.24,0H180a.12.12,0,0,1-.14-.09c-.14-.4-.29-.8-.44-1.2l-.32-.86c-.1-.27-.19-.55-.31-.82V28l-.33-.89c-.1-.32-.23-.64-.35-.95s-.2-.54-.29-.8l-.16-.46c0-.15-.06-.16.11-.16h1.9c.07,0,.1,0,.12.1l.18.53c.08.3.18.61.29.91a7.24,7.24,0,0,0,.25.79v.05L181.1,29l.45-1.42.09-.3v-.15c.07-.19.13-.39.2-.59a.66.66,0,0,0,.06-.27h0l.27-.85c0-.1.07-.2.1-.3s.06-.15.08-.23.05-.09.12-.09h1.47a.43.43,0,0,0,.06-.22h0c.07-.19.15-.37.21-.56s.11-.18.09-.29h0c.11-.29.21-.57.31-.86,0-.09.08-.19.11-.28l.54-1.47c.12-.29.22-.58.32-.88s.25-.64.36-1c0-.08.06-.12.16-.11h.49a.33.33,0,0,1,0,.14c-.11.3-.22.59-.32.89s-.23.58-.33.87a.82.82,0,0,1-.1.26l-.56,1.55c-.11.26-.21.53-.3.8a.21.21,0,0,0,0,.11.27.27,0,0,0,0,.15l-.12.3-.14.39-.31.86c-.13.29-.23.58-.33.87l-.07.2c-.1.22-.17.45-.25.67l-.34.94c-.23.58-.44,1.17-.65,1.75-.12.29-.22.58-.32.87,0,.13-.11.26-.15.4-.18.47-.35.94-.52,1.4-.11.29-.22.58-.32.87C181.38,33.38,181.35,33.47,181.32,33.56Z" transform="translate(-1)"/><path class="cls-7" d="M40.72,266.54a.46.46,0,0,1-.09.33,2,2,0,0,1-1.45,1.32l-.51.12h-.89a5,5,0,0,1-1.71-.37,3.76,3.76,0,0,1-.93-.59h0v-.14c.17-.22.32-.44.47-.67s.29-.39.42-.59.07,0,.1,0a2.46,2.46,0,0,0,.7.45,1,1,0,0,0,.34.14,2.52,2.52,0,0,0,1.12.15.82.82,0,0,0,.37-.13.26.26,0,0,0,.09-.37.2.2,0,0,0-.09-.09.72.72,0,0,0-.19-.11,3.57,3.57,0,0,0-.72-.16l-.89-.2-.15-.05a2.14,2.14,0,0,1-1.22-.86.39.39,0,0,1-.05-.45,1.74,1.74,0,0,0,.14-.38q.18-.45.33-.9l.14-.38v-.09c.05-.17.1-.33.27-.4l.5-.19a5.31,5.31,0,0,1,.89-.13,6.64,6.64,0,0,1,.89.05,5.54,5.54,0,0,1,.89.23l.14.06a5.07,5.07,0,0,1,.72.4h0c.11.06.11.12,0,.22l-.75,1c-.07.06-.11.17-.19.23a3,3,0,0,0-1.78-.62.69.69,0,0,0-.4.08.27.27,0,0,0-.1.37.24.24,0,0,0,.1.1.69.69,0,0,0,.28.11c.31.08.62.13.94.18s.6.15.9.25l.16.07a1.76,1.76,0,0,1,1,1A2.21,2.21,0,0,1,40.72,266.54Z" transform="translate(-1)"/><path class="cls-7" d="M33.32,268.56l-.23.62-.31.86c-.23.58-.44,1.16-.65,1.75a.11.11,0,0,0,0,.08c0,.11-.09.13-.18.13H31.6c-.16,0-.16,0-.11-.17h0l.12-.32.51-1.4c.13-.3.24-.61.34-.92s.32-.84.47-1.27a2.84,2.84,0,0,0,.17-.49,5,5,0,0,0,.25-.64,1.13,1.13,0,0,0,.08-.24.94.94,0,0,1,.1-.28c0-.09.11-.15.06-.21s-.15,0-.24,0H32a.12.12,0,0,1-.14-.09c-.14-.4-.29-.8-.44-1.2l-.32-.86c-.1-.27-.19-.55-.31-.82V263l-.33-.89c-.1-.32-.23-.64-.35-.95s-.2-.54-.29-.8l-.16-.46c-.05-.15-.06-.16.11-.16h1.9c.07,0,.1,0,.12.1l.18.53c.08.3.18.61.29.91a7.24,7.24,0,0,0,.25.79v.05L33.1,264l.45-1.42.09-.3v-.15c.07-.19.13-.39.2-.59a.66.66,0,0,0,.06-.27h0l.27-.85c0-.1.07-.2.1-.3s.06-.15.08-.23,0-.09.12-.09h1.38s.08,0,.09-.05a.43.43,0,0,0,.06-.22h0c.07-.19.15-.37.21-.56s.11-.18.09-.29h0c.11-.29.21-.57.31-.86,0-.09.08-.19.11-.28l.54-1.47c.12-.29.22-.58.32-.88s.25-.64.36-1c0-.08.06-.12.16-.11h.49a.33.33,0,0,1,0,.14c-.11.3-.22.59-.32.89s-.23.58-.33.87a.82.82,0,0,1-.1.26l-.56,1.55c-.11.26-.21.53-.3.8a.21.21,0,0,0,0,.11.27.27,0,0,0,0,.15l-.12.3-.14.39-.31.86c-.13.29-.23.58-.33.87l-.07.2c-.1.22-.17.45-.25.67l-.34.94c-.23.58-.44,1.17-.65,1.75-.12.29-.22.58-.32.87,0,.13-.11.26-.15.4-.18.47-.35.94-.52,1.4-.11.29-.22.58-.32.87C33.38,268.38,33.35,268.47,33.32,268.56Z" transform="translate(-1)"/></g></g></svg>