<svg xmlns="http://www.w3.org/2000/svg" viewBox="0 0 213 294"><defs><style>.cls-1{fill:#5b5b5b;}.cls-2{fill:#fff;}.cls-3{fill:#c9c19f;}.cls-4{font-size:12px;font-family:SegoeScript, Segoe Script;}.cls-5{fill:#1b1b1b;}.cls-6{fill:#f9bba7;}.cls-6,.cls-7{stroke:#000;stroke-miterlimit:10;}.cls-7{fill:#fec9b8;}</style></defs><g id="Calque_2" data-name="Calque 2"><g id="Calque_1-2" data-name="Calque 1"><path class="cls-1" d="M2,292V30.09A28.12,28.12,0,0,1,30.09,2H211V263.35A28.68,28.68,0,0,1,182.35,292Z"/><path class="cls-2" d="M209,4V263.35A26.67,26.67,0,0,1,182.35,290H4V30.09A26.13,26.13,0,0,1,30.09,4H209m4-4H30.09A30.09,30.09,0,0,0,0,30.09V294H182.35A30.65,30.65,0,0,0,213,263.35V0Z"/><path class="cls-3" d="M22.12,277.88V46.62a30.54,30.54,0,0,1,30.5-30.5H191.88V247.39a30.53,30.53,0,0,1-30.49,30.49Z"/><path d="M191.75,16.25V247.39a30.4,30.4,0,0,1-30.36,30.36H22.25V46.62A30.4,30.4,0,0,1,52.62,16.25H191.75M192,16H52.62A30.62,30.62,0,0,0,22,46.62V278H161.39A30.6,30.6,0,0,0,192,247.39V16Z"/><text class="cls-4" transform="translate(67.81 47.03)">Pierre-Rock</text><text class="cls-4" transform="translate(145.34 253.93) rotate(180)">Pierre-Rock</text><path class="cls-5" d="M187.72,31.54c0,.11-.05.22-.09.33a2,2,0,0,1-1.45,1.32l-.51.12a8.83,8.83,0,0,1-.89,0,5,5,0,0,1-1.71-.37,4.07,4.07,0,0,1-.93-.59l0,0c0-.06,0-.09,0-.14a8,8,0,0,0,.47-.67c.15-.19.29-.39.42-.59s.07,0,.1,0a2.61,2.61,0,0,0,.7.45,1,1,0,0,0,.34.14,2.52,2.52,0,0,0,1.12.15.78.78,0,0,0,.37-.13.27.27,0,0,0,0-.46.72.72,0,0,0-.19-.11,3.72,3.72,0,0,0-.72-.16l-.89-.2-.15-.05a2.14,2.14,0,0,1-1.22-.86.41.41,0,0,1-.05-.45,2.13,2.13,0,0,0,.14-.38q.18-.45.33-.9l.14-.38,0-.09c0-.17.1-.33.27-.4l.5-.19a5.31,5.31,0,0,1,.89-.13,6.64,6.64,0,0,1,.89.05,5.54,5.54,0,0,1,.89.23l.14.06a5.07,5.07,0,0,1,.72.4l.05,0c.11.06.11.12,0,.22l-.75,1c-.07.06-.11.17-.19.23a3,3,0,0,0-1.78-.62.7.7,0,0,0-.4.08.27.27,0,0,0,0,.47.69.69,0,0,0,.28.11c.31.08.62.13.94.18a8.5,8.5,0,0,1,.9.25l.16.07a1.77,1.77,0,0,1,1,1A2.22,2.22,0,0,1,187.72,31.54Z"/><path class="cls-5" d="M180.32,33.56l-.23.62-.31.86c-.23.58-.44,1.16-.65,1.75a.19.19,0,0,0,0,.08c0,.11-.09.13-.18.13h-.32c-.16,0-.16,0-.11-.17h0l.12-.32.51-1.4c.13-.3.24-.61.34-.92s.32-.84.47-1.27a2.84,2.84,0,0,0,.17-.49,5,5,0,0,0,.25-.64,1,1,0,0,0,.08-.24c0-.1.07-.19.1-.28s.11-.15.06-.21-.15,0-.24,0H179a.12.12,0,0,1-.14-.09c-.14-.4-.29-.8-.44-1.2l-.32-.86c-.1-.27-.19-.55-.31-.82l0-.07-.33-.89c-.1-.32-.23-.64-.35-.95s-.2-.54-.29-.8-.11-.31-.16-.46-.06-.16.11-.16h1.9c.07,0,.1,0,.12.1l.18.53c.08.3.18.61.29.91a7.24,7.24,0,0,0,.25.79s0,0,0,.05l.59,1.87.45-1.42.09-.3,0-.05,0-.1c.07-.19.13-.39.2-.59a.82.82,0,0,0,.06-.27s0,0,0,0l.27-.85a2.64,2.64,0,0,0,.1-.3c0-.08.06-.15.08-.23s.05-.09.12-.09h1.38s.08,0,.09,0a.55.55,0,0,0,.06-.22l0,0c.07-.19.15-.37.21-.56s.11-.18.09-.29l0,0c.11-.29.21-.57.31-.86,0-.09.08-.19.11-.28l.54-1.47c.12-.29.22-.58.32-.88s.25-.64.36-1c0-.08.06-.12.16-.11h.49a.29.29,0,0,1,0,.14c-.11.3-.22.59-.32.89s-.23.58-.33.87c0,.09-.07.18-.1.26l-.56,1.55c-.11.26-.21.53-.3.8a.36.36,0,0,0,0,.11.3.3,0,0,0-.05.15l-.12.3-.14.39-.31.86c-.13.29-.23.58-.33.87l-.07.2c-.1.22-.17.45-.25.67l-.34.94c-.23.58-.44,1.17-.65,1.75-.12.29-.22.58-.32.87,0,.13-.11.26-.15.4-.18.47-.35.94-.52,1.4-.11.29-.22.58-.32.87C180.38,33.38,180.35,33.47,180.32,33.56Z"/><path class="cls-5" d="M39.72,266.54c0,.11,0,.22-.09.33a2,2,0,0,1-1.45,1.32l-.51.12a8.83,8.83,0,0,1-.89,0,5,5,0,0,1-1.71-.37,4.07,4.07,0,0,1-.93-.59l0,0c0-.06,0-.09,0-.14a8,8,0,0,0,.47-.67c.15-.19.29-.39.42-.59s.07,0,.1,0a2.61,2.61,0,0,0,.7.45,1,1,0,0,0,.34.14,2.52,2.52,0,0,0,1.12.15.78.78,0,0,0,.37-.13.27.27,0,0,0,0-.46.72.72,0,0,0-.19-.11,3.72,3.72,0,0,0-.72-.16l-.89-.2-.15-.05a2.14,2.14,0,0,1-1.22-.86.41.41,0,0,1-.05-.45,2.13,2.13,0,0,0,.14-.38q.18-.45.33-.9l.14-.38,0-.09c.05-.17.1-.33.27-.4l.5-.19a5.31,5.31,0,0,1,.89-.13,6.64,6.64,0,0,1,.89.05,5.54,5.54,0,0,1,.89.23l.14.06a5.07,5.07,0,0,1,.72.4l0,0c.11.06.11.12,0,.22l-.75,1c-.07.06-.11.17-.19.23a3,3,0,0,0-1.78-.62.7.7,0,0,0-.4.08.27.27,0,0,0,0,.47.69.69,0,0,0,.28.11c.31.08.62.13.94.18a8.5,8.5,0,0,1,.9.25l.16.07a1.77,1.77,0,0,1,1,1A2.22,2.22,0,0,1,39.72,266.54Z"/><path class="cls-5" d="M32.32,268.56l-.23.62-.31.86c-.23.58-.44,1.16-.65,1.75a.19.19,0,0,0,0,.08c0,.11-.09.13-.18.13H30.6c-.16,0-.16,0-.11-.17h0l.12-.32.51-1.4c.13-.3.24-.61.34-.92s.32-.84.47-1.27a2.84,2.84,0,0,0,.17-.49,5,5,0,0,0,.25-.64,1,1,0,0,0,.08-.24c0-.1.07-.19.1-.28s.11-.15.06-.21-.15,0-.24,0H31a.12.12,0,0,1-.14-.09c-.14-.4-.29-.8-.44-1.2l-.32-.86c-.1-.27-.19-.55-.31-.82l0-.07-.33-.89c-.1-.32-.23-.64-.35-.95s-.2-.54-.29-.8-.11-.31-.16-.46-.06-.16.11-.16h1.9c.07,0,.1,0,.12.1l.18.53c.08.3.18.61.29.91a7.24,7.24,0,0,0,.25.79s0,0,0,.05l.59,1.87.45-1.42.09-.3,0-.05,0-.1c.07-.19.13-.39.2-.59a.82.82,0,0,0,.06-.27s0,0,0,0l.27-.85a2.64,2.64,0,0,0,.1-.3c0-.08.06-.15.08-.23s0-.09.12-.09h1.38s.08,0,.09-.05a.55.55,0,0,0,.06-.22l0,0c.07-.19.15-.37.21-.56s.11-.18.09-.29l0,0c.11-.29.21-.57.31-.86,0-.09.08-.19.11-.28l.54-1.47c.12-.29.22-.58.32-.88s.25-.64.36-1c0-.08.06-.12.16-.11h.49a.29.29,0,0,1,0,.14c-.11.3-.22.59-.32.89s-.23.58-.33.87c0,.09-.07.18-.1.26l-.56,1.55c-.11.26-.21.53-.3.8a.36.36,0,0,0,0,.11.3.3,0,0,0-.05.15l-.12.3-.14.39-.31.86c-.13.29-.23.58-.33.87l-.07.2c-.1.22-.17.45-.25.67l-.34.94c-.23.58-.44,1.17-.65,1.75-.12.29-.22.58-.32.87,0,.13-.11.26-.15.4-.18.47-.35.94-.52,1.4-.11.29-.22.58-.32.87C32.38,268.38,32.35,268.47,32.32,268.56Z"/><path class="cls-6" d="M142.77,90.23c-.91,2.76-1.94,5.5-2.68,8.31-.55,2.11-1.56,2.53-3.43,1.66-.76-.35-1.64-.46-2.4-.81-4.55-2-8.9-2-13.56,1.93,2-6.08,3.65-11.29,5.34-16.49a8.94,8.94,0,0,1,16.73,5.4Z"/><path class="cls-6" d="M157,106.77c-5-1.61-10-3.28-15-4.8-1.74-.53-2.21-1.29-1.57-3,1-2.81,1.86-5.69,2.78-8.54C146.53,86,151,84.58,155,86.57c4.6,2.31,6.31,6.81,4.61,12.17C158.74,101.42,157.88,104.09,157,106.77Z"/><path class="cls-7" d="M157,106.77c2.33.73,4.77,1.29,6.47,3.24a9,9,0,0,1,2,9.17c-4.39,13.53-8.49,27.17-13.27,40.56-2.88,8-9.14,13.07-17.64,14.56-3,.52-4.22,1.74-5.08,4.49-4.54,14.47-9.33,28.86-13.89,43.33-.75,2.37-1.59,2.82-4,2q-22.4-7.44-44.9-14.54c-2.23-.71-2.67-1.54-1.93-3.77,4.91-14.85,9.65-29.75,14.52-44.61a3.76,3.76,0,0,0-1-4.47c-7.08-7.22-9.11-15.77-6-25.41,3.71-11.57,7.53-23.11,11.3-34.66,1.1.53,1,1.75,1.44,2.64,2.75,5.52,7.84,7,13.23,4,1.14-.64,1.7-2,3.32-2.32-.34,1.28.22,2.32.55,3.37a8.8,8.8,0,0,0,8.88,6.08c4-.06,6.79-2.21,8.07-6.16q3.2-9.83,6.37-19.64a1.8,1.8,0,0,0,.51.17c-1.69,5.2-3.37,10.41-5.34,16.49,4.66-4,9-4,13.56-1.93.76.35,1.64.46,2.4.81,1.87.87,2.88.45,3.43-1.66.74-2.81,1.77-5.55,2.68-8.31a2.58,2.58,0,0,0,.49.17c-.92,2.85-1.75,5.73-2.78,8.54-.64,1.74-.17,2.5,1.57,3C147.07,103.49,152,105.16,157,106.77Zm-20.31,7.7c-3.14-1-6.24-2.13-9.41-3s-5.36.38-6.17,3.26c-.67,2.39.65,4.41,3.62,5.4,4.11,1.36,8.25,2.63,12.35,4,1,.34,2.94.27,2.19,2.12-.65,1.59,0,4-2.92,4.45a25.68,25.68,0,0,0-11,3.88,24.88,24.88,0,0,0-10,12.17c-1.1,3-.73,5.89,1.63,7s5.2-.44,6.3-3.41a16.87,16.87,0,0,1,16.69-11c3.4.18,4.93-.84,6-4.13s2.21-6.8,3.3-10.2c1.3-4,.08-6.43-4-7.81C142.45,116.29,139.57,115.4,136.71,114.47Z"/><path class="cls-6" d="M125.53,84.66q-3.18,9.82-6.37,19.64c-1.28,4-4.1,6.1-8.07,6.16a8.8,8.8,0,0,1-8.88-6.08c-.33-1-.89-2.09-.55-3.37-1.62.3-2.18,1.68-3.32,2.32-5.39,3-10.48,1.52-13.23-4-.44-.89-.34-2.11-1.44-2.64,1.15-3.67,2.29-7.35,3.47-11,1.49-4.64,5-7.39,9.22-7.27s7.39,2.85,8.75,7.46c.12.41.2.83.43,1.84.74-2.3,1.3-4,1.87-5.79,1.77-5.37,5.76-8,10.86-7.22C122.67,75.39,125.5,79.27,125.53,84.66Z"/><path class="cls-6" d="M136.71,114.47c2.86.93,5.74,1.82,8.59,2.79,4.08,1.38,5.3,3.77,4,7.81-1.09,3.4-2.17,6.81-3.3,10.2s-2.63,4.31-6,4.13a16.87,16.87,0,0,0-16.69,11c-1.1,3-4,4.53-6.3,3.41s-2.73-4.06-1.63-7a24.88,24.88,0,0,1,10-12.17,25.68,25.68,0,0,1,11-3.88c3-.42,2.27-2.86,2.92-4.45.75-1.85-1.19-1.78-2.19-2.12-4.1-1.4-8.24-2.67-12.35-4-3-1-4.29-3-3.62-5.4.81-2.88,3-4.14,6.17-3.26S133.57,113.46,136.71,114.47Z"/></g></g></svg>