<svg xmlns="http://www.w3.org/2000/svg" viewBox="0 0 213 294"><defs><style>.cls-1{fill:#466365;}.cls-2{fill:#fff;}.cls-3{fill:#ceb3ab;}.cls-4{font-size:12px;font-family:SegoeScript, Segoe Script;}.cls-5{letter-spacing:-0.02em;}.cls-6{fill:#1b1b1b;}.cls-7{fill:#fec9b8;}.cls-7,.cls-8,.cls-9{stroke:#000;stroke-miterlimit:10;}.cls-8{fill:none;}.cls-9{fill:#f9bba7;}</style></defs><g id="Calque_2" data-name="Calque 2"><g id="Calque_1-2" data-name="Calque 1"><path class="cls-1" d="M2,292V30.09A28.12,28.12,0,0,1,30.09,2H211V263.35A28.68,28.68,0,0,1,182.35,292Z"/><path class="cls-2" d="M209,4V263.35A26.67,26.67,0,0,1,182.35,290H4V30.09A26.13,26.13,0,0,1,30.09,4H209m4-4H30.09A30.09,30.09,0,0,0,0,30.09V294H182.35A30.65,30.65,0,0,0,213,263.35V0Z"/><path class="cls-3" d="M22.12,277.88V46.62a30.54,30.54,0,0,1,30.5-30.5H191.88V247.39a30.53,30.53,0,0,1-30.49,30.49Z"/><path d="M191.75,16.25V247.39a30.4,30.4,0,0,1-30.36,30.36H22.25V46.62A30.4,30.4,0,0,1,52.62,16.25H191.75M192,16H52.62A30.62,30.62,0,0,0,22,46.62V278H161.39A30.6,30.6,0,0,0,192,247.39V16Z"/><text class="cls-4" transform="translate(64.81 47.03)"><tspan class="cls-5">P</tspan><tspan x="9.07" y="0">apier-</tspan><tspan class="cls-5" x="50.44" y="0">P</tspan><tspan x="59.51" y="0">aper</tspan></text><text class="cls-4" transform="translate(149.34 253.93) rotate(180)"><tspan class="cls-5">P</tspan><tspan x="9.07" y="0">apier-</tspan><tspan class="cls-5" x="50.44" y="0">P</tspan><tspan x="59.51" y="0">aper</tspan></text><path class="cls-6" d="M187.72,31.54c0,.11-.05.22-.09.33a2,2,0,0,1-1.45,1.32l-.51.12a8.83,8.83,0,0,1-.89,0,5,5,0,0,1-1.71-.37,4.07,4.07,0,0,1-.93-.59l0,0c0-.06,0-.09,0-.14a8,8,0,0,0,.47-.67c.15-.19.29-.39.42-.59s.07,0,.1,0a2.61,2.61,0,0,0,.7.45,1,1,0,0,0,.34.14,2.52,2.52,0,0,0,1.12.15.78.78,0,0,0,.37-.13.27.27,0,0,0,0-.46.72.72,0,0,0-.19-.11,3.72,3.72,0,0,0-.72-.16l-.89-.2-.15-.05a2.14,2.14,0,0,1-1.22-.86.41.41,0,0,1-.05-.45,2.13,2.13,0,0,0,.14-.38q.18-.45.33-.9l.14-.38,0-.09c0-.17.1-.33.27-.4l.5-.19a5.31,5.31,0,0,1,.89-.13,6.64,6.64,0,0,1,.89.05,5.54,5.54,0,0,1,.89.23l.14.06a5.07,5.07,0,0,1,.72.4l.05,0c.11.06.11.12,0,.22l-.75,1c-.07.06-.11.17-.19.23a3,3,0,0,0-1.78-.62.7.7,0,0,0-.4.08.27.27,0,0,0,0,.47.69.69,0,0,0,.28.11c.31.08.62.13.94.18a8.5,8.5,0,0,1,.9.25l.16.07a1.77,1.77,0,0,1,1,1A2.22,2.22,0,0,1,187.72,31.54Z"/><path class="cls-6" d="M180.32,33.56l-.23.62-.31.86c-.23.58-.44,1.16-.65,1.75a.19.19,0,0,0,0,.08c0,.11-.09.13-.18.13h-.32c-.16,0-.16,0-.11-.17h0l.12-.32.51-1.4c.13-.3.24-.61.34-.92s.32-.84.47-1.27a2.84,2.84,0,0,0,.17-.49,5,5,0,0,0,.25-.64,1,1,0,0,0,.08-.24c0-.1.07-.19.1-.28s.11-.15.06-.21-.15,0-.24,0H179a.12.12,0,0,1-.14-.09c-.14-.4-.29-.8-.44-1.2l-.32-.86c-.1-.27-.19-.55-.31-.82l0-.07-.33-.89c-.1-.32-.23-.64-.35-.95s-.2-.54-.29-.8-.11-.31-.16-.46-.06-.16.11-.16h1.9c.07,0,.1,0,.12.1l.18.53c.08.3.18.61.29.91a7.24,7.24,0,0,0,.25.79s0,0,0,.05l.59,1.87.45-1.42.09-.3,0-.05,0-.1c.07-.19.13-.39.2-.59a.82.82,0,0,0,.06-.27s0,0,0,0l.27-.85a2.64,2.64,0,0,0,.1-.3c0-.08.06-.15.08-.23s.05-.09.12-.09h1.38s.08,0,.09,0a.55.55,0,0,0,.06-.22l0,0c.07-.19.15-.37.21-.56s.11-.18.09-.29l0,0c.11-.29.21-.57.31-.86,0-.09.08-.19.11-.28l.54-1.47c.12-.29.22-.58.32-.88s.25-.64.36-1c0-.08.06-.12.16-.11h.49a.29.29,0,0,1,0,.14c-.11.3-.22.59-.32.89s-.23.58-.33.87c0,.09-.07.18-.1.26l-.56,1.55c-.11.26-.21.53-.3.8a.36.36,0,0,0,0,.11.3.3,0,0,0-.05.15l-.12.3-.14.39-.31.86c-.13.29-.23.58-.33.87l-.07.2c-.1.22-.17.45-.25.67l-.34.94c-.23.58-.44,1.17-.65,1.75-.12.29-.22.58-.32.87,0,.13-.11.26-.15.4-.18.47-.35.94-.52,1.4-.11.29-.22.58-.32.87C180.38,33.38,180.35,33.47,180.32,33.56Z"/><path class="cls-6" d="M39.72,266.54c0,.11,0,.22-.09.33a2,2,0,0,1-1.45,1.32l-.51.12a8.83,8.83,0,0,1-.89,0,5,5,0,0,1-1.71-.37,4.07,4.07,0,0,1-.93-.59l0,0c0-.06,0-.09,0-.14a8,8,0,0,0,.47-.67c.15-.19.29-.39.42-.59s.07,0,.1,0a2.61,2.61,0,0,0,.7.45,1,1,0,0,0,.34.14,2.52,2.52,0,0,0,1.12.15.78.78,0,0,0,.37-.13.27.27,0,0,0,0-.46.72.72,0,0,0-.19-.11,3.72,3.72,0,0,0-.72-.16l-.89-.2-.15-.05a2.14,2.14,0,0,1-1.22-.86.41.41,0,0,1-.05-.45,2.13,2.13,0,0,0,.14-.38q.18-.45.33-.9l.14-.38,0-.09c.05-.17.1-.33.27-.4l.5-.19a5.31,5.31,0,0,1,.89-.13,6.64,6.64,0,0,1,.89.05,5.54,5.54,0,0,1,.89.23l.14.06a5.07,5.07,0,0,1,.72.4l0,0c.11.06.11.12,0,.22l-.75,1c-.07.06-.11.17-.19.23a3,3,0,0,0-1.78-.62.7.7,0,0,0-.4.08.27.27,0,0,0,0,.47.69.69,0,0,0,.28.11c.31.08.62.13.94.18a8.5,8.5,0,0,1,.9.25l.16.07a1.77,1.77,0,0,1,1,1A2.22,2.22,0,0,1,39.72,266.54Z"/><path class="cls-6" d="M32.32,268.56l-.23.62-.31.86c-.23.58-.44,1.16-.65,1.75a.19.19,0,0,0,0,.08c0,.11-.09.13-.18.13H30.6c-.16,0-.16,0-.11-.17h0l.12-.32.51-1.4c.13-.3.24-.61.34-.92s.32-.84.47-1.27a2.84,2.84,0,0,0,.17-.49,5,5,0,0,0,.25-.64,1,1,0,0,0,.08-.24c0-.1.07-.19.1-.28s.11-.15.06-.21-.15,0-.24,0H31a.12.12,0,0,1-.14-.09c-.14-.4-.29-.8-.44-1.2l-.32-.86c-.1-.27-.19-.55-.31-.82l0-.07-.33-.89c-.1-.32-.23-.64-.35-.95s-.2-.54-.29-.8-.11-.31-.16-.46-.06-.16.11-.16h1.9c.07,0,.1,0,.12.1l.18.53c.08.3.18.61.29.91a7.24,7.24,0,0,0,.25.79s0,0,0,.05l.59,1.87.45-1.42.09-.3,0-.05,0-.1c.07-.19.13-.39.2-.59a.82.82,0,0,0,.06-.27s0,0,0,0l.27-.85a2.64,2.64,0,0,0,.1-.3c0-.08.06-.15.08-.23s0-.09.12-.09h1.38s.08,0,.09-.05a.55.55,0,0,0,.06-.22l0,0c.07-.19.15-.37.21-.56s.11-.18.09-.29l0,0c.11-.29.21-.57.31-.86,0-.09.08-.19.11-.28l.54-1.47c.12-.29.22-.58.32-.88s.25-.64.36-1c0-.08.06-.12.16-.11h.49a.29.29,0,0,1,0,.14c-.11.3-.22.59-.32.89s-.23.58-.33.87c0,.09-.07.18-.1.26l-.56,1.55c-.11.26-.21.53-.3.8a.36.36,0,0,0,0,.11.3.3,0,0,0-.05.15l-.12.3-.14.39-.31.86c-.13.29-.23.58-.33.87l-.07.2c-.1.22-.17.45-.25.67l-.34.94c-.23.58-.44,1.17-.65,1.75-.12.29-.22.58-.32.87,0,.13-.11.26-.15.4-.18.47-.35.94-.52,1.4-.11.29-.22.58-.32.87C32.38,268.38,32.35,268.47,32.32,268.56Z"/><path class="cls-7" d="M166.61,143.94q-10.26,13.2-20.66,26.3c-3.91,4.92-7.26,10.3-12,14.52a20.55,20.55,0,0,1-9.31,5c-1.91.42-2.58,1.35-3,3.13l-7.5,30.16-47-11.72q3.66-14.64,7.33-29.28c.56-2.21.37-3.6-1.48-5.28-6.38-5.81-8.51-13.27-6.53-21.58,4.46-18.66,9.44-37.2,13.75-55.9,1.53-6.59,8.61-10.39,14.58-5.19q-4.09,16.35-8.18,32.71c-.73,2.91.19,4.81,2.57,5.42s4.15-.68,4.88-3.55q3.8-15.12,7.54-30.24c.72-2.93,0-4.26-2.92-5.58.85-3.21,1.66-6.43,2.54-9.63a8.9,8.9,0,0,1,7.62-6.58,8.28,8.28,0,0,1,8.16,5,4,4,0,0,1,.16,1c-1.51.79-3.06,1.44-3.54,3.37-3.09,12.48-6.23,25-9.31,37.46-.54,2.19.47,3.6,2.63,4.22,2.75.79,4.23-.09,5-3.11,3-11.9,5.87-23.83,9-35.7.73-2.81.09-4.63-2.4-5.9a41.6,41.6,0,0,0,1.33-5.19c.68-5.1,3.55-7.87,8.54-8.6l4,1c3.92,3.07,4.91,7,3.41,11.67-.53,1.68-.82,3.45-1.22,5.18-3.17-.2-4.45.64-5.18,3.58q-4.48,17.85-8.91,35.73c-.61,2.44.65,5.27,2.49,5.78,2.15.61,4.5-1,5.38-3.61.19-.56.31-1.15.45-1.74,2.72-10.92,5.37-21.85,8.21-32.73.7-2.69.36-4.85-1.56-6.78a8.19,8.19,0,0,1,10.25-1.43,8.3,8.3,0,0,1,3.61,9.31q-6.6,26.55-13.22,53.1c-.27,1.07-.44,2.16-.66,3.25-1.08-.22-2.17-.42-3.25-.68-11.07-2.72-23.24,4.66-26,15.77-.78,3.22-.11,4.63,2.55,5.33s3.91-.1,4.87-3.31a14.74,14.74,0,0,1,17.61-10.08c1.57.38,3.13.8,4.7,1.16a3.86,3.86,0,0,0,4.1-1.4,3.58,3.58,0,0,0,.34-4.06c-.24-.55-.47-1.09-.7-1.64,2.29-3.9,5.35-7.23,8-10.88q3-4.14,6.25-8.07c3.09-3.74,8-4.34,11.55-1.57A8.31,8.31,0,0,1,166.61,143.94Z"/><line class="cls-8" x1="154.49" y1="239.61" x2="155.15" y2="239.78"/><line class="cls-8" x1="114.11" y1="223.07" x2="67.09" y2="211.35"/><path class="cls-9" d="M135.35,87.26c1.93,1.93,2.27,4.09,1.57,6.76-2.83,10.87-5.48,21.78-8.2,32.68-.14.58-.25,1.17-.44,1.73-.89,2.65-3.23,4.21-5.38,3.61-1.84-.52-3.1-3.34-2.49-5.78q4.43-17.83,8.89-35.66c.73-2.93,2-3.77,5.18-3.57Z"/><path class="cls-9" d="M118.44,83c2.5,1.27,3.14,3.09,2.41,5.88-3.08,11.86-6,23.76-8.95,35.64-.75,3-2.23,3.89-5,3.1-2.16-.61-3.17-2-2.63-4.21,3.07-12.47,6.21-24.92,9.29-37.39.48-1.93,2-2.58,3.53-3.36Z"/><path class="cls-9" d="M139.63,152.47c.23.54.46,1.08.7,1.62a3.58,3.58,0,0,1-.34,4.06,3.86,3.86,0,0,1-4.09,1.4c-1.58-.36-3.14-.78-4.71-1.16a14.72,14.72,0,0,0-17.6,10.05c-1,3.2-2.16,4-4.87,3.3s-3.33-2.1-2.55-5.32c2.71-11.08,14.88-18.45,26-15.73,1.07.27,2.16.46,3.24.68Z"/><path class="cls-9" d="M98.65,92.82c2.9,1.32,3.64,2.65,2.91,5.57q-3.74,15.1-7.52,30.18c-.72,2.87-2.55,4.15-4.88,3.55s-3.29-2.51-2.57-5.41q4.08-16.33,8.17-32.65C96,93.53,97.06,92.31,98.65,92.82Z"/></g></g></svg>