<?xml version="1.0" encoding="utf-8"?>
<!-- Generator: Adobe Illustrator 26.0.1, SVG Export Plug-In . SVG Version: 6.00 Build 0)  -->
<svg version="1.1" xmlns="http://www.w3.org/2000/svg" xmlns:xlink="http://www.w3.org/1999/xlink" x="0px" y="0px"
	 viewBox="0 0 2500 1600" style="enable-background:new 0 0 2500 1600;" xml:space="preserve">
<style type="text/css">
	.st0{fill:url(#SVGID_1_);}
	.st1{fill:#874A13;}
	.st2{fill:#7C4214;}
	.st3{fill:#E89329;}
	.st4{fill:#5D2705;}
</style>
<g id="BACKGROUND">
	<linearGradient id="SVGID_1_" gradientUnits="userSpaceOnUse" x1="1250" y1="-227.7664" x2="1250" y2="2015.1616">
		<stop  offset="0" style="stop-color:#B66A12"/>
		<stop  offset="1" style="stop-color:#8B4A10"/>
	</linearGradient>
	<rect class="st0" width="2500" height="1600"/>
</g>
<g id="MID-GROUND">
	<g>
		<path class="st1" d="M324.01,285.79c-0.74,20.88-4.95,41.46-8.44,62.06c-7.25,42.84-11.46,86.2-12.58,129.64
			c-15.06-92.89-4.15-187.83-2.81-281.92C301.1,130.25,297.65,64.86,289.84,0h21.77c-5.48,74-0.9,148.48,7.82,222.19
			C321.93,243.32,324.77,264.53,324.01,285.79z"/>
		<path class="st2" d="M359.1,1388.23c-0.26,22.99-0.54,45.97-1.59,68.94c-2.18,47.61-7.67,95.24-6.89,142.83h-35.87
			c6.75-24.86,12.42-50,17.01-75.34c31.25-172.36,12.01-349.46-12.46-522.91c-23.09,56-27.74,117.72-29.28,178.28
			c-1.6,63.03-1.07,125.86,3.48,188.75c17.27-71.66,27.58-145.25,27.43-218.95c14.94,102.25,4.83,210.54-29.67,307.95
			c-17.35-95.83-22.88-193.79-16.43-290.97c4.22-63.46,16.51-127.28,49.25-181.82C361.09,1115.25,360.6,1252.82,359.1,1388.23z"/>
		<path class="st1" d="M364.33,398.74c11.07,95.59,1.86,192.19-3.19,288.29c-5.25,100.02-5.99,200.28-2.2,300.36
			c-18.11-168.23-10.78-333.43-3.87-502.48C356.25,456.16,363.16,427.48,364.33,398.74z"/>
		<path class="st1" d="M369.61,1219.96c1.95-66.21,1.62-132.49-0.98-198.68c2.28,9.84,3.82,18.51,4.72,28.57
			c1.2,13.34,1.19,26.76,1.18,40.15c-0.03,29.94-0.06,59.89-0.1,89.83C374.41,1194.35,373.63,1206,369.61,1219.96z"/>
		<path class="st2" d="M288.35,1600h-25.21c9.84-37.04,14.8-75.36,14.7-113.68c0.07,25.62,7.26,52.6,9.08,78.36
			C287.74,1576.43,287.99,1588.23,288.35,1600z"/>
		<path class="st1" d="M374.86,85.51c-0.96,64.39-5.94,128.61-11.17,192.77c-0.17,2.02-0.33,4.03-0.49,6.05
			c-0.11,1.26-0.21,2.53-0.31,3.79c-0.11,1.32-0.22,2.63-0.33,3.95c-0.03,0.35-0.06,0.69-0.09,1.04
			c-2.47,30.12-4.93,60.24-7.4,90.36c-1.04-28.45-0.53-56.92,0.6-85.39c0.05-1.18,0.09-2.36,0.14-3.54
			c0.04-0.89,0.08-1.78,0.11-2.68c0.07-1.67,0.15-3.34,0.22-5.01c3.1-69.71,9.13-139.43,4.3-208.98
			c-0.7-10.05-2.02-20.96-9.14-28.08c-3.55-3.56-8.23-5.78-12.1-9c-10.48-8.73-13.63-23.25-16.16-36.65
			c-0.26-1.36-0.51-2.75-0.73-4.14h53.1C380.92,25.51,375.21,62.61,374.86,85.51z"/>
		<path class="st1" d="M263.03,150.61c-1.8,23.07-9.06,45.31-14.26,67.85c-10.43,45.3-12.54,92.04-18.91,138.08
			c-9.98,72.25-30.39,142.59-50.73,212.63c-0.84,2.88-3.07,6.51-5.85,5.36c-11.52-7.99-23.04-15.97-34.56-23.96
			c-3.45-2.39-6.96-4.84-9.47-8.21c-3.1-4.17-4.41-9.36-6.2-14.24c-11.86-32.27-46.85-54.11-51.53-88.18
			c-4.21-30.71-20.26-62.13-29.03-91.87c-3.22-10.9-6.44-21.83-11.04-32.23c-4.8-10.83-11.03-20.96-16.65-31.4
			c-5.56-10.34-10.5-21-14.8-31.92v-61.44c0.11,0.51,0.21,1.03,0.32,1.55c2.85,14.12,5.72,28.31,10.92,41.74
			c9.1,23.51,24.99,43.87,34.51,67.21c12.69,31.1,14.34,67.77,36.29,93.19c12.43,14.39,30.25,23.58,41.66,38.79
			c4.72,6.28,9.05,14.08,16.71,15.87c6.14,1.43,12.52-1.68,17.18-5.93c9.34-8.51,13.66-21.07,17.63-33.07
			c17.44-52.75,35.01-106.1,39.69-161.46c1.47-17.39,1.74-35.28,8.28-51.46c4.12-10.2,10.58-19.29,15.33-29.22
			c12.14-25.45,12.33-54.76,12.28-82.96c-0.05-28.13-0.02-56.98-0.05-85.33h20.03c0.05,24.19-7.39,48.59-8.97,73.04
			C260.13,98.87,265.04,124.81,263.03,150.61z"/>
		<path class="st1" d="M221.29,64.37c-2.02,10.77-5.04,21.35-6.82,32.17c-2.94,17.85-2.49,36.1-4.89,54.03
			c-2.38,17.76-7.52,35.01-12.65,52.18c-12.26,41.04-24.51,82.08-36.77,123.13c-3.2,10.73-7.38,22.65-17.48,27.48
			c-13.8,6.61-29.66-3.93-39.76-15.43c-7.79-8.87-14.5-18.7-19.93-29.2c-9.51-18.37-14.98-38.52-20.38-58.49
			c-7.6-28.07-15.2-56.15-21.8-84.48c-10.72-46.1-18.76-92.77-26.79-139.42C12.51,17.56,10.99,8.78,9.48,0h9.51
			c16.68,59.93,15.96,127.22,54.15,175.83c7.86,10,17.45,19.3,20.98,31.5c3.58,12.39,0.29,25.74,2.12,38.51
			c1.82,12.77,13.12,26.42,25.39,22.48c7.24-2.33,11.38-9.72,14.83-16.49c11.08-21.78,22.17-43.57,33.26-65.35
			c6.48-12.75,13.02-25.63,16.43-39.52c3.12-12.69,3.53-25.86,5.27-38.81C196.3,71.84,211.6,35.85,211.6,0h12.63
			C225.27,21.58,225.25,43.19,221.29,64.37z"/>
		<path class="st1" d="M187.04,0c-1.54,14.63-4.8,29.15-8.05,43.54c-8.16,36.15-16.32,72.29-24.48,108.43
			c-2.03,8.99-4.25,18.38-10.3,25.34c-6.04,6.96-17.19,10.42-24.68,5.04c-7.3-5.26-7.83-15.65-10.7-24.18
			c-5.53-16.48-20.99-27.46-29.91-42.38c-6.77-11.33-9.53-24.54-12.19-37.47C61.36,52.21,55.99,26.11,50.62,0h11.83
			c2.71,10.67,6.65,20.99,10.59,31.27c3.4,8.9,6.8,17.79,10.2,26.69c8.22,21.48,17.12,43.95,34.79,58.67
			c1.62,1.34,3.34,2.64,5.36,3.22c5.05,1.48,10.45-2.04,13.01-6.63c2.56-4.59,3.01-10.02,3.65-15.24
			c2.33-18.96,7.9-37.53,16.39-54.65c6.92-13.97,16.02-28.51,18.73-43.33H187.04z"/>
		<path class="st3" d="M338.64,313.82c16.64-18.61,38.98-31.1,61.52-41.86c0.73-0.35,1.49-0.73,1.92-1.41
			c0.37-0.59,0.42-1.32,0.46-2.02c0.36-6.03,0.71-12.06,1.07-18.09C379.47,268.55,355.17,288.59,338.64,313.82z"/>
		<path class="st4" d="M404.65,260.65c-25.96,12.54-49.02,31.05-66.89,53.68c11.22-24.57,33.77-41.84,49.56-63.76
			c6.49-9.01,11.84-18.83,18.67-27.58C402.06,233.99,409.69,246.34,404.65,260.65z"/>
		<path class="st2" d="M226.06,1314.72c-0.33,48.24-3.38,97.07-4.58,145.73C220.83,1411.84,222.36,1363.2,226.06,1314.72z"/>
		<path class="st2" d="M221.48,1460.45c0.63,46.6,3.25,93.17,7.88,139.55h-2.13C220.89,1554.09,220.33,1507.35,221.48,1460.45z"/>
		<path class="st2" d="M285,952.48c-6.57,55.06-20.37,108.95-31.37,163.29c-13.3,65.66-22.5,132.15-27.57,198.95
			c0.02-2.64,0.03-5.28,0.03-7.91c0.05-84.71-15.64-169.42-7.85-253.77c3.73-40.44,12.82-80.16,19.33-120.25
			c11.29-69.44,14.84-139.88,18.38-210.14c4.46-88.68,11.38-175.74,15.84-264.42c1.49,76.6,4.74,153.17,9.76,229.63
			C287.33,776.02,295.46,864.75,285,952.48z"/>
		<path class="st1" d="M195.32,1308.86c-13.25-152.19-7.34-306.03,17.53-456.75c6.89-41.74,15.23-83.29,19.67-125.36
			c4.6-43.65,4.98-87.62,5.35-131.51c-30.06,130.29-61.78,261.25-66.39,394.89C167.85,1095.64,182.99,1203.99,195.32,1308.86z"/>
		<path class="st2" d="M154.43,1600h-29.8c0.08-0.61,0.16-1.22,0.24-1.83c2.9-22.49,5.8-45,6.97-67.64
			c7.14-137.76-49.42-270.09-107.89-395.03c-4-8.52-10.33-18.46-19.7-17.56c-1.54,0.15-2.95,0.58-4.25,1.24v-118.71
			c1.23-0.59,2.53-1.06,3.88-1.41c9.56-2.46,19.85,2.26,26.55,9.52c6.7,7.25,10.48,16.67,13.86,25.95
			c37.66,103.55,41.88,216.74,77.71,320.95c8.47,24.62,18.68,48.67,25.8,73.72C163.5,1484.51,163.52,1542.94,154.43,1600z"/>
		<path class="st2" d="M73.72,1600c4.05-16.12,8.21-32.21,6.79-48.61c-1.3-15.05-7.24-29.26-13.31-43.09
			c-1.43-3.27-2.88-6.54-4.34-9.8c-0.76-1.7-1.52-3.4-2.29-5.1c-0.2-0.44-0.4-0.89-0.6-1.34c-0.84-1.86-1.69-3.72-2.54-5.58
			c-11.58-25.32-23.84-50.32-36.78-74.97c-5.59-10.67-11.74-21.7-20.65-29.49v-66.11c15.79,31.62,30.01,64.01,44.24,96.37
			c9.76,22.22,19.55,44.51,28.07,67.22c0.3,0.79,0.6,1.59,0.89,2.39c0.07,0.18,0.14,0.36,0.2,0.54c0.5,1.36,1,2.72,1.49,4.08
			c4.97,13.75,9.43,27.66,13.1,41.82c6.06,23.37,9.88,47.57,10.15,71.67H73.72z"/>
		<path class="st1" d="M79.66,982.6c-2.37-32.53-4.74-65.06-7.11-97.59c-2.57-35.2-5.13-70.47-4.05-105.74
			c1.67-54.35,11.98-108.1,14.75-162.4S80.59,505.9,53.32,458.86c17.21,69.27,0.04,142.57-4.58,213.79
			c-4.58,70.62,1.39,141.46,7.9,211.92c3.28,35.5,6.98,71.93,23.08,103.73C78.34,981.43,80.17,989.6,79.66,982.6z"/>
		<path class="st2" d="M176.84,1331.65c12.41,62.34,18.5,125.64,22.36,189.14c-7.68-73.47-24.58-146.12-51.99-214.25
			c-13.82-34.35-32.32-67.01-41.61-102.84c-15.65-60.38-3.91-124.07,7.88-185.31c11.86-61.62,25.56-124.71,37.42-186.33
			c-3.37,76.92-6.74,153.84-10.12,230.76c-0.97,22.16-1.94,44.37-1.02,66.54C142.61,1197.95,163.42,1264.32,176.84,1331.65z"/>
		<path class="st2" d="M203.99,1600h-0.8c-1.15-26.4-2.38-52.82-3.99-79.21C201.97,1547.15,203.54,1573.61,203.99,1600z"/>
		<path class="st3" d="M164.71,733.66c0,0-6.93,35-54.74,71.39c-47.81,36.39-77.1,39.63-77.1,39.63S129.78,776.61,164.71,733.66z"/>
		<path class="st4" d="M32.87,844.68c17.77-21.61,35.86-43.52,58.97-59.29c6.95-4.74,14.29-8.88,21.34-13.46
			c16.27-10.57,38.94-23.5,51.53-38.27c-2.19,12.35-16.14,22.59-24.38,30.08c-20.65,18.75-41.68,37.08-63.08,54.97
			C64.1,829.69,49.51,840.58,32.87,844.68z"/>
		<path class="st3" d="M81.12,1474.88c0,0-0.28,4.19-6.23,11.63c-2.68,3.36-6.52,7.38-12.03,11.99c-2.86,2.38-6.17,4.93-10,7.62
			c-16.21,11.39-37.84,29.5-52.86,42.43v-19.74c15.94-8.62,39.91-22.3,59.97-36.75c4.67-3.37,9.13-6.78,13.23-10.17
			C76.03,1479.54,78.69,1477.2,81.12,1474.88z"/>
		<path class="st4" d="M81.12,1474.88c-2.55,2.53-5.11,5.07-7.72,7.55c-4.1,3.88-8.32,7.62-12.83,10.97
			c-1.69,1.25-3.42,2.46-5.2,3.59c-5.79,3.7-12.06,6.64-17.67,10.61c-6.75,4.79-12.4,10.97-18.96,16.01
			c-5.9,4.53-12.66,8.28-18.74,12.61v-25.25c18.71-8.87,38.4-16.05,57.43-24.49c5.02-2.22,9.99-4.53,14.88-6.98
			C75.28,1478.02,78.22,1476.48,81.12,1474.88z"/>
		<path class="st2" d="M836.68,1140.2c-0.83-0.27-2.03-0.52-2.62-0.1c-0.08,4.94-1.33,9.63-3.25,14.14v0.01
			c-3.11,7.32-7.96,14.17-12.36,20.87c-19.63,29.91-32.59,63.6-45.41,97c-24.57,64.03-49.14,128.06-73.72,192.09
			c-9.57,24.95-19.24,50.34-21.27,76.98c-1.29,16.97,0.4,34.91-7.16,50.16c-7.86-7.77-20.13,0.06-27.89,8.65h-65.28
			c-6.57-15.08-14.43-29.61-23.46-43.37c-2.97-4.52-6.27-9.15-11.13-11.53c-4.86-2.39-11.69-1.64-14.46,3.01
			c-6.49-61.88-45.4-119.61-38.37-181.43c1.86-16.34,6.8-33.63,0.06-48.63c-2.12-4.73-5.29-8.89-7.9-13.36
			c-3.7-6.33-6.24-13.24-8.77-20.11c-9.43-25.63-18.85-51.25-28.28-76.87c-5.81-15.78-11.75-31.83-21.23-45.63v-0.01
			c-1.23-1.79-2.52-3.54-3.87-5.25c-2.15-2.71-4.04-5.52-5.58-8.43c-0.94-1.76-1.74-3.56-2.39-5.4c-1.67-4.7-2.36-9.66-1.73-14.95
			c4.54-38.26-0.39-64.15-0.89-96.55c1.16,1.57,2.26,3.15,3.31,4.76v0.01c0.84,1.27,1.64,2.55,2.41,3.84v0.01
			c3.74,6.26,6.79,12.76,9.46,19.41v0.01c9.11,22.73,13.74,47.14,26.26,69.5c8.06,14.38,19.34,27.07,24.97,42.56
			c6.32,17.37,4.9,36.43,6.23,54.87c2.79,38.45,17.77,75.06,22.46,113.33c1.75,14.32,2.08,28.94,6.15,42.79
			c3.26,11.1,8.84,21.35,14.37,31.51c10.28,18.86,20.56,37.73,30.83,56.59c14.38,26.4,30.64,54.57,58.17,66.64
			c2.77,1.22,5.78,2.26,8.77,1.8c5.92-0.93,9.28-7.12,11.73-12.59c38.27-85.31,76.53-170.61,114.8-255.92
			c8.25-18.39,16.58-37.05,19.77-56.95c1.87-11.69,1.92-23.58,3.29-35.34c2.58-22.15,9.79-43.47,16.95-64.59
			c13.24-39.04,26.48-78.1,39.72-117.14c1.87-5.52,3.74-11.03,5.61-16.55c4.93,52.09,5.61,104.72,0.91,156.83
			C835.79,1138.04,835.86,1139.51,836.68,1140.2z"/>
		<path class="st2" d="M836.68,1140.2c0.75,0.24,1.19,0.51,0.55,0.3C837.02,1140.43,836.83,1140.33,836.68,1140.2z"/>
		<path class="st2" d="M408.81,929.6c26.46,33.09,49.3,69.09,67.97,107.13c14.6,29.75,27.11,61.43,49.94,85.46
			c9.44,9.94,20.47,18.33,29.32,28.8c19.15,22.62,26.47,52.62,39.09,79.44c12.62,26.81,35.11,53.24,64.73,54.11
			c53.36-64.29,48.83-157.94,88.35-231.55c11.21-20.88,25.81-39.74,40.82-58.08c14.22-17.38,28.89-34.4,43.97-51.04
			c0.8-10.82,1.21-21.35,2.02-32.17c-7.03,19.93-20.91,35.65-36.99,49.35c-15.2,12.95-33.63,22.13-47.04,36.92
			c-9.01,9.93-15.33,21.95-21.56,33.82c-23.69,45.18-47.38,90.36-71.07,135.54c-24.01-34.17-83.61-25.64-106.87-60.32
			c-4.9-7.3-7.61-15.9-12.63-23.13c-5.51-7.94-13.49-13.77-20.22-20.7c-12.32-12.68-20.32-28.83-28.13-44.69
			c-28.45-57.83-56.91-115.67-85.36-173.5c0.68,0.35,2.2,1.12,1.47,1.34c-0.73,0.22-0.85,1.19-0.83,1.95
			c0.69,25.53,1.39,51.06,2.08,76.6C408.25,924.25,408.43,930.22,408.81,929.6z"/>
		<path class="st2" d="M841.26,1431.45c-1.55,3.85-3.11,7.71-4.69,11.57v0.01c-11.93,29.27-24.8,58.36-44.04,83.34
			c-9.3,12.08-20.06,23.15-27.58,36.42c-6.56,11.58-10.38,24.32-13.88,37.21h-13.45c25.78-53.67,38.11-114.49,64.86-168.25
			c11.15-22.41,25.09-44.54,31.93-68.22c0-0.01,0-0.01,0-0.02c2.44-8.45,3.98-17.09,4.16-26.01c5.95,32.49,6.31,59.52,1.94,92.25
			C840.45,1430.3,841.05,1431.7,841.26,1431.45z"/>
		<path class="st1" d="M757.55,195.8c-3.37,8.43-9.21,15.65-13.08,23.86c-7.8,16.53-7.08,35.64-10.35,53.62
			c-5.16,28.35-20.91,54.64-43.48,72.55c-2.92,1.05-3,1.42-5.92,2.47c0.87,26.69,1.73,53.38,2.6,80.06
			c0.22,6.71,0.43,13.52-1.21,20.03c-4.12,16.45-18.84,27.69-28.34,41.73c-8,11.82-12.29,25.69-16.47,39.33
			c-4.94,16.13-9.89,32.26-14.83,48.4c-3.67,11.97-7.34,23.94-11.15,35.87c-4.88-0.64-10.09,31.05-11.59,51.15
			c-1.46,19.58-3.95,41.31-18.83,54.11c-1.58-3.39-3.16-6.77-4.74-10.16c-8.74,3.33-12.25,13.59-14.71,22.61
			c-3.5,12.91-7,25.82-10.51,38.72c-2.46,0.1-4.96-0.75-6.86-2.32c-3.54-11.51-7.33-20.71-16.76-28.2
			c-3.39-45.89-31.97-114.78-34.98-104.52c-9.29-52.05-26.49-147.94-30.66-143.18c-0.79-35.27-8.74-70.36-23.24-102.51
			c10.59,5.29,14.71,12.53,19.01,23.57c4.29,11.04,7.21,22.79,13.75,32.67c3.08,4.66,6.93,8.83,9.59,13.76
			c3.17,5.89,4.49,12.57,5.77,19.13c4.55,23.37,16.26,44.63,16.23,68.43c-0.04,21.93,8.23,42.88,14.34,63.94
			c9.68,33.4,14.06,68.06,18.41,102.56c7.2-12.49,8.86-27.3,10.36-41.64c2.88-27.51,5.76-55.03,8.65-82.54
			c3.81,17.56,20.86-17.4,40.25-53.04c5.83-10.71,13.28-20.96,15.43-32.96c1.56-8.74,0.27-18.2,4.3-26.1
			c3.56-6.98,10.61-11.4,15.72-17.35c6.18-7.2,9.34-16.48,11.83-25.64c9.22-33.86-0.44-73.58,10.43-106.95
			c13.84-42.44,16.7-88.4,8.24-132.23c7.84,9.73,16.94,20.19,29.34,21.71c7.24-21.14,31.62-31.57,42.43-51.13
			c8-14.47,7.54-31.96,6.54-48.46C740.63,77.07,736.04,39.01,729.69,0h23.76c2.58,52.53,5.14,105.07,7.71,157.6
			C761.79,170.48,762.35,183.83,757.55,195.8z"/>
		<path class="st2" d="M408.33,722.88c54.26,45.36,103.77,103.22,114.21,173.17c9.73,1.85,18.67-5.44,25.42-12.69
			c14.67-15.76,26.83-33.86,35.87-53.4c11.73-25.34,18.2-52.93,30.8-77.85c15.13-29.92,38.52-54.87,55.41-83.83
			c32.3-55.36,40.78-124.88,85-171.28c10.05-10.54,21.77-19.65,29.91-31.73c7.84-11.65,11.89-25.39,18.34-37.87
			c6.45-12.48,16.49-24.43,30.24-27.28c-1.1-7.7-0.52-14.09-1.63-21.79c-31.11,10.37-38.65,49.7-55.22,77.99
			c-13.85,23.65-36.11,41.26-51.44,63.97c-24.98,37.01-29.64,84.39-51.9,123.09c-11.56,20.11-27.55,37.29-40.4,56.61
			c-34.64,52.09-45.53,118.17-85.17,166.55c-3.93,4.8-11.43,9.51-15.51,4.83c-1.72-1.98-1.82-4.83-2.03-7.45
			c-1.69-21.47-15.77-39.66-29.26-56.44c-25.74-32.01-51.48-64.01-77.22-96.02c-8-9.95-16.47-22.74-11.48-34.48
			C407.31,694.19,405.58,705.21,408.33,722.88z"/>
		<path class="st2" d="M570.16,450.87c-4.5,9.16-9.34,18.2-12.65,27.86c-4.94,14.36-6.5,30.01-13.88,43.28
			c-8.41,0.67-13.07-9.34-15.26-17.48c-13.88-51.42-27.75-102.84-41.62-154.27c-7.38-27.37-14.78-54.78-19.92-82.66
			c-8.35-45.2-10.73-91.26-13.09-137.16c-1.46-28.25-2.91-56.51-4.36-84.76c-0.79-15.23-1.57-30.46-2.35-45.68h46.07
			c0.57,6.43,0.47,12.85-0.93,19.16c-1.29,5.82-3.65,11.34-5.7,16.94c-10.49,28.7-12.79,59.63-15,90.1
			c-0.48,6.72,0.62,17.4,3.03,23.7c5.4,14.14,10.85,28.52,11.99,43.62c1.32,17.41-3.2,34.92-1.41,52.29
			c4.11,39.99,40.08,70.51,47.08,110.09c2.66,15.01,1.56,32.09,11.78,43.39c15.33-15.81,30.98-32.08,39.76-52.27
			c5.84-13.41,8.38-27.98,10.87-42.4c5.73-33.15,11.46-66.3,17.2-99.45c0.41-2.4,3.15-3.51,3.56-5.92
			c1.21-7.08,3.11,14.06,0.67,14.15C627.7,298.88,608.17,373.43,570.16,450.87z"/>
		<path class="st2" d="M664.72,0c-0.81,10.47-2.31,21.13-2.39,25.83c-0.13,7.07-0.25,14.17-1.57,21.12
			c-1.17,6.2-3.28,12.18-4.86,18.3c-3.98,15.42-4.57,31.47-5.85,47.34c-1.63,20.16-4.41,40.22-8.31,60.06
			c-7.3-23.56-0.88-49.55-7.22-73.39c-1.93-7.25-5.01-14.17-6.57-21.51c-2.4-11.33-1.08-23.06-0.74-34.64
			c0.42-14.44-0.74-28.92-3.43-43.11H664.72z"/>
		<path class="st1" d="M836.22,580.66c-48.53,56.92-64.82,135.44-62.51,210.2c0.72,23.2,2.52,48.4-10.65,67.51
			c-5.72,8.31-13.83,14.66-20.26,22.43c-7.3,8.81-12.3,19.26-17.01,29.69c-12.17,26.97-20.86,52.22-29.97,80.37
			c5.46-80.94,12.16-163.64,44.86-237.88c5.71-12.96,12.22-25.71,15.41-39.5c4.35-18.81,2.31-38.61,6.26-57.5
			c3.63-17.33,12.14-33.18,19.99-49.06c21.86-44.21,39.27-90.62,51.88-138.31c1.19,14.04,3.04,28.8,0.77,42.71
			c-0.93,5.7-2.15,11.34-2.94,17.06C829.77,544.86,831.52,564.71,836.22,580.66z"/>
		<path class="st3" d="M612.92,126.85c0,0-22.12,43.72-82.49,100.34C530.43,227.19,561.64,166.62,612.92,126.85z"/>
		<path class="st4" d="M530.43,227.19c18.72-26.81,39.84-51.84,60.93-76.83c5.72-6.78,11.51-13.62,18.6-18.94
			c-0.4,0.4,3.36-4.97,2.96-4.56c-5.41,5.41-12.17,5.61-19.14,8.76c-8.65,3.9-15.2,11.22-21.48,18.34
			C552.98,175.85,537.28,198.81,530.43,227.19z"/>
		<path class="st3" d="M654.01,1064.76c0,0,1.41,8.65-29.62,40.38c-31.02,31.73-46.32,47.03-65.02,71.96
			c-18.7,24.93-57.73,56.32-65.98,74.05c0,0-0.88-7.2,37.65-54.79C569.58,1148.76,654.01,1064.76,654.01,1064.76z"/>
		<path class="st4" d="M493.4,1251.14c3.57-17.64,18.32-30.46,28.02-45.62c14.35-22.41,17.98-50.81,34.34-71.81
			c10.6-13.6,25.64-22.91,40.34-31.92c8.29-5.08,28.29-22.41,57.9-37.05c-6.14,13.64-44.48,47.22-54.98,58.77
			c-12.64,13.91-25.06,28.01-37.26,42.31c-11.83,13.87-23.44,27.91-34.84,42.13C518.64,1218.32,496.02,1238.16,493.4,1251.14z"/>
		<path class="st1" d="M904.98,401.88c-4.6,39.55-4.46,79.48-4.31,119.3c0.19,51.32,0.39,102.63,0.58,153.95v0.01
			c0.01,4.12,0.03,8.22,0.05,12.34c0.01,4.75,0.03,9.51,0.05,14.26v0.01c0,1.24,0.01,2.47,0.02,3.71
			c0.26,71.56,0.54,143.13,0.81,214.69c0.2,54.82,0.41,109.76,6.26,164.27c4.71,43.94,13.07,87.5,15.4,131.62
			c6.77,128.23-37.35,258.76-16.03,383.96h-15.72c-10.52-293.47-13.69-587.21-9.5-880.85c0.02-1.81,0.05-3.63,0.08-5.45v-0.01
			c0.05-4.29,0.12-8.57,0.19-12.87c0.07-4.97,0.15-9.93,0.23-14.91v-0.01c0.95-58.99,2.2-117.98,3.74-176.97
			c1.39-52.83,3-105.87-2.92-158.39c-3.99-35.46-11.4-70.48-15.47-105.93c-9.3-81.24-0.91-163.29,8.31-244.61h30.14
			c-5.78,80.24,22.71,161.11,20.56,242.23C926.03,296,911.19,348.46,904.98,401.88z"/>
		<path class="st1" d="M1008.5,1287.46c-5.58,102.14-23.44,211-8.6,312.54h-17.94c-10.55-221.46-14.96-443.22-13.23-664.91
			c1.04-132.45,4.26-264.9,2.5-397.34C968.85,358.26,957.3,179.04,944.36,0h15.54c-0.22,107.52,2.03,215.12,17.61,321.4
			c8.38,57.11,20.61,113.95,21.61,171.67c0.79,44.91-5.24,89.62-8.63,134.4C973.83,847.11,1020.53,1067.52,1008.5,1287.46z"/>
		<path class="st2" d="M1248.22,1600h-20.72c-61.57-141.19-42.34-308.95-82.92-459.73c-6.79-25.24-15.26-49.99-23.12-74.91
			c-0.41-1.3-0.82-2.59-1.23-3.89c-0.48-1.56-0.96-3.11-1.44-4.67c-0.96-3.1-1.9-6.22-2.82-9.33c-2.48-8.33-4.83-16.7-6.96-25.13
			c-12.53-49.48-17.58-100.51-22.45-151.33c-27.8-289.93-50.89-580.32-69.26-871.01h18.34c-0.14,135.26,11.56,270.52,34.99,403.74
			c10.22,58.12,22.69,116.1,25.5,175.04c2.95,61.87-4.79,123.74-5.45,185.67c-0.88,81.83,10.72,163.78,34.27,242.15
			c2.27,7.57,4.66,15.11,7.12,22.63c1.2,3.69,2.42,7.37,3.66,11.05v0.01c0.86,2.58,1.73,5.15,2.61,7.72
			c0.45,1.32,0.9,2.65,1.36,3.97c13.79,40.35,28.49,80.41,37.86,121.96c22.99,101.87,13.19,208.74,33.7,311.13
			C1219.18,1524.61,1231.62,1563.25,1248.22,1600z"/>
		<path class="st2" d="M1157.89,1600h-47.15c-4.56-46-14.74-90.88-37.04-131.04c-8.91-16.04-19.72-31.26-25.35-48.72
			c-11-34.12-0.76-70.89,5.24-106.23c7.95-46.83,8.28-94.57,8.58-142.07c0.48-75.72,0.96-151.44,1.45-227.15
			c10.7,128.58,17.93,257.46,21.68,386.43c0.99,34.32,1.78,68.94,9.69,102.36c5.61,23.74,14.74,46.48,23.83,69.12
			C1131.85,1535.14,1144.87,1567.57,1157.89,1600z"/>
		<path class="st1" d="M1285.97,1231.12c0.25,1.62,0.5,3.25,0.75,4.88C1284.74,1236.23,1285.26,1233.79,1285.97,1231.12z"/>
		<path class="st1" d="M1286.94,1226.33c0.01,1.27-0.52,3.08-0.97,4.79c-0.27-1.76-0.55-3.51-0.84-5.27
			c-11.63-72.52-30.58-143.86-56.45-212.6c-5.65-15-11.62-29.88-17.74-44.7c-0.62-1.52-1.25-3.04-1.88-4.55
			c-0.84-2.03-1.68-4.06-2.52-6.09c-0.9-2.15-1.79-4.3-2.7-6.44c-12.77-30.55-25.81-61-37.43-92
			c-10.33-27.56-19.62-56.05-20.43-85.47c-0.6-22.17,3.64-44.15,5.49-66.24c5.87-69.9-12.08-139.26-24.07-208.37
			c-11.27-64.95-17.34-130.67-23.39-196.31c-3.65-39.51-7.29-79.02-10.94-118.52c-5.67-61.53-11.35-123.04-17.02-184.56h73.51
			c0.6,51.06,7.1,102.05,14.71,152.96c0.76,5.11,1.53,10.21,2.31,15.32c0.3,1.94,0.59,3.88,0.89,5.82c0.44,2.83,0.87,5.66,1.31,8.49
			c14.43,93.55,29.42,186.82,15.11,279.72c-4.41,28.61-11.57,57.85-5.32,86.12c8.17,36.94,37.53,65.06,54.7,98.77
			c26.39,51.78,23.47,117.45,52.94,167.03c1.58,2.67,3.26,5.29,5.04,7.86c2.75,35.2-5.74,72.83-1.59,107.89
			C1301.29,1028.18,1286.32,1127.44,1286.94,1226.33z"/>
		<path class="st1" d="M1293.55,425.01c-2.34-3.87-4.6-7.79-6.77-11.75c-21.74-39.53-35.54-83.07-49.16-126.18
			c-13.9-44.01-27.83-88.11-39.25-132.8c-0.72-2.85-1.44-5.7-2.14-8.56c-0.73-2.91-1.44-5.82-2.14-8.73
			c-0.74-3.09-1.46-6.19-2.17-9.29c-2.76-11.98-5.3-24.02-7.58-36.11c-2.66-14.11-12.71-60.3-18.78-91.59h5.62
			c8.38,37.81,20.98,76.74,34.94,115.85c0.49,1.38,0.98,2.75,1.48,4.13c0.83,2.33,1.67,4.66,2.51,6.98
			c0.93,2.56,1.86,5.12,2.79,7.68c28.92,79.06,61.45,158.2,73.9,229.54c0.01,0.05,0.02,0.11,0.03,0.16
			C1290.33,384.45,1292.51,404.62,1293.55,425.01z"/>
		<path class="st2" d="M1290.43,671.87c-0.04,5.48-0.08,10.97-0.12,16.45c-1.76-21.79-13.43-41.4-19.41-62.43
			c-8.1-28.47-5.58-58.7-5.34-88.3c0.33-40.2-3.68-80.44-11.94-119.79c12.86,62.28,25.72,124.56,38.58,186.83
			C1297.84,631.93,1290.63,644,1290.43,671.87z"/>
		<path class="st1" d="M1290.94,1520.76c-0.92,4.07-1.79,15.56-0.1,19.38c-11.63-34.7-23.26-69.4-34.89-104.1
			c-5.33-15.91-10.7-31.95-12.86-48.6c-2.71-20.78-0.35-41.84,0.06-62.8c0.44-22.24-1.32-44.45-3.07-66.62
			c-2.46-31.08-4.92-62.15-7.38-93.23c10.01,79.91,31.04,136.56,54.94,213.47c6.69,21.51,8.96,69.42,4.93,99.7
			C1290.81,1491.15,1296.1,1497.85,1290.94,1520.76z"/>
		<path class="st3" d="M1223.16,96.72c0,0,7.22,28.33-36.65,69.79c-43.87,41.47-76.24,59.13-76.24,59.13
			S1197.31,142.91,1223.16,96.72z"/>
		<path class="st4" d="M1223.16,96.72c-8.49,13.42-21.68,23-33.88,33.15c-31.99,26.63-58.94,59.3-79,95.77
			c-0.72,1.32,3.63-2.3,2.43-1.4c17.42-15.02,29.44-28.25,46.87-43.27C1187.31,157.07,1214.09,132.21,1223.16,96.72z"/>
		<path class="st3" d="M966.63,628.73c0,0-11.27,32.86-44.59,60.51s-84.57,60.51-84.57,60.51l1.59-20
			C839.07,729.74,928.24,675.74,966.63,628.73z"/>
		<path class="st3" d="M1212.83,941.7c0,0,5.07,25.81-17.08,64.61s-23.07,27.69-36.55,35.87c-13.48,8.18-25.52,9.63-39.96,25.52
			c-14.44,15.89-42.64,38.74-42.64,38.74s27.72-34.41,45.05-52.7c17.33-18.29,40.77-33.7,62.27-59.7
			C1205.42,968.03,1212.83,941.7,1212.83,941.7z"/>
		<path class="st4" d="M1183.69,974.41c-0.91,2.71-1.23,5.61-2.35,8.24c-2,4.68-6.24,7.94-10.26,11.07
			c-38.93,30.39-71.35,69.07-94.48,112.71c21-23.96,42.6-48.42,70.58-63.66c7.46-4.06,15.39-7.49,21.85-13
			c6.27-5.34,10.82-12.37,15.28-19.29c13.16-20.43,28.45-43.58,28.51-68.78C1205.11,953.46,1188.33,960.55,1183.69,974.41z"/>
		<path class="st1" d="M1682.19,478.19c-11.52,220.89-55.12,438.64-91.28,656.85c-10.99,66.35-21.32,132.89-26.81,199.92
			c-5.67,69.12-6.19,138.55-6.71,207.9c-0.14,19.04-0.28,38.09-0.42,57.14h-66.19c-16.73-67.96-23.44-138.09-24.25-208.53
			c-0.02-2.38-0.04-4.76-0.05-7.14v-0.01c-0.03-4.73-0.04-9.44-0.01-14.17c0.01-3.66,0.05-7.32,0.1-10.97
			c0.45-35.67,2.26-71.34,4.89-106.78c4.97-67.07,12.84-134.24,30.7-199.08c17.21-62.51,43.5-122.12,63.44-183.81
			c16.34-50.55,28.37-102.39,43.42-153.33c13.35-45.21,29.14-89.98,35.89-136.63C1673.53,381.72,1537.08,197.36,1513.37,0h96.51
			c2.88,112.5,55.47,220.22,69.71,332.88C1685.68,381.01,1684.71,429.75,1682.19,478.19z"/>
		<path class="st2" d="M1731.98,1600h-49.15c-16.49-142.5-23.34-286.74-5.28-428.95c3.82-30.06,8.75-60.04,9.87-90.32
			c1-26.95-1.03-53.91-1.73-80.87c-2.31-88.04,9.57-176.44,35.03-260.75c0.32-1.09,0.65-2.17,0.98-3.25
			c5.91,119.52,0.75,238.2,3.69,357.83c4.44,180.29,4.92,337.42,6.58,504.43C1731.97,1598.74,1731.98,1599.37,1731.98,1600z"/>
		<path class="st2" d="M1628.19,1600h-39.56c0.22-157.29,16.68-313.54,47.15-468.05C1616.23,1287.07,1613.69,1444.32,1628.19,1600z"
			/>
		<path class="st1" d="M1583.3,519.8c-4.16,28.22-11.24,55.92-18.31,83.56c-25.65,100.3-51.3,200.59-76.95,300.89
			c-15.52-130.42,44.79-255.57,31.66-386.26c-2.84-28.34-9.2-56.2-15.99-83.86c-35.25-143.71-82.92-287.15-89.18-434.13h67.87
			c17.77,81.33,46.56,160.05,69.6,240.16C1578.14,331,1597.05,426.28,1583.3,519.8z"/>
		<path class="st2" d="M1431.08,992.43c-16.36,131.45-23.02,264.1-19.97,396.52c0.15,6.71,0.33,13.43,0.54,20.14
			c0.1,3.27,0.2,6.53,0.32,9.79c0.11,3.34,0.23,6.67,0.35,10.01c2.16,57.14,6.13,114.22,11.92,171.11h-66.13
			c-0.46-42.03-0.76-84.09-0.51-126.13c0.02-1.92,0.03-3.84,0.05-5.77c0.05-7.13,0.12-14.27,0.21-21.4
			c0.03-3.07,0.07-6.13,0.12-9.19c1.39-96.15,6.26-192.12,19.24-287.34c21.17-155.36,63.84-308.09,70.24-464.75
			c6.26-153.39-16.15-300.97-44.72-451.8c30.08,111.59,60.33,224.19,66.5,339.61C1476.74,713.57,1448.44,852.97,1431.08,992.43z"/>
		<path class="st1" d="M1395.18,763.26c-17.49-153.44-47.86-305.75-86.75-455.37c-3.12-12.02-6.29-24.02-9.53-36
			c-0.8-3.01-1.62-6.01-2.43-9.01c-1.28-4.7-2.57-9.39-3.86-14.08c1.11-98.56-1.29-172.42-2.35-248.8h42.5
			C1347.86,255.37,1420.94,508.76,1395.18,763.26z"/>
		<path class="st3" d="M1551.3,1294.48c0,0-41.77,62.34-78.17,91.74c-36.4,29.4-26.08,15.39-63.8,45.01s-120.85,101.9-120.85,101.9
			l3.93-40.42c0,0,66.76-47.09,121.58-85.23C1468.81,1369.33,1484.57,1359.38,1551.3,1294.48z"/>
		<path class="st1" d="M1941.13,768.25c-0.53,16.99,0.8,34.14-1.96,50.91c-2.94,17.79-10.36,34.49-17.72,50.95
			c-9.78,21.88-19.55,43.75-29.33,65.63c-5.04,11.28-10.35,22.93-19.62,31.1c-44.59-77.16-41.46-171.5-53.58-259.78
			c-8.07-58.78-23.4-116.58-27.64-175.76c-2.46-34.19-1.18-68.52-0.23-102.79c3.98-142.82,2.41-285.81-4.71-428.51h45.19
			c-7.91,97.36-15.78,194.73-22.29,292.19c-0.82,12.36-1.62,24.77-2.28,37.21c-0.01,0.22-0.02,0.44-0.03,0.65
			c-0.01,0.09-0.02,0.18-0.02,0.26c-0.01,0.1-0.01,0.2-0.01,0.29c-3.57,67.93-3.07,136.55,18.52,200.64
			c20.07,59.59,57.91,113.66,66.13,175.99c1.5,11.36,2.01,22.99,5.74,33.82c16.72-37.76,33.58-76,40.63-116.68
			c4.55-26.3,4.91-53.12,5.26-79.81c0.51-38.9-9.17-85.34-1.93-123.56c8.19-43.18-16.75-90.68,2.34-130.26
			c10.18,13.35,13.56,30.52,16.58,47.03c7.49,40.96,14.56,81.98,21.22,123.08c3.66,22.65,7.21,45.43,7.18,68.37
			C1988.47,610.72,1943.63,686.79,1941.13,768.25z"/>
		<path class="st1" d="M2070.25,313.06c-1.46,38.15-9.79,75.66-14.84,113.5c-4.15,31.16-6.08,62.57-8.01,93.95
			c-5.05,82.37-10.1,164.75-15.16,247.12c-12.09-32.54,0.35-68.47,1.4-103.17c1.13-36.83-10.77-72.82-13.42-109.57
			c-1.22-16.87-0.49-33.8,0.01-50.71c2.06-69.09,0.31-138.27-4.49-207.22c-4.97-71.34-13.22-142.45-24.69-213.04
			c-3.04-18.74-18.56-60.35-15.04-83.92h85.58c-3.06,61.59-5.34,123.31-0.29,184.73C2064.82,227.5,2071.89,270.18,2070.25,313.06z"
			/>
		<path class="st1" d="M2136.76,1041c-21.16-44.42-33.15-93.18-35-142.34c-2.04-54.35,8.14-108.59,6.38-162.95
			c-0.73-22.42-3.48-44.71-4.99-67.09c-9.32-138.59,29.34-276.32,28.33-415.23c7.46,264.78,12.64,523.87,7.69,788.7
			C2138.33,1037.63,2138.71,1045.1,2136.76,1041z"/>
		<path class="st1" d="M1854.27,268.81c-11.66,101.93-1.98,206.25,28.25,304.3c-18.52-60.88,11.2-125.85,7.89-189.39
			c-1.19-22.95-6.7-45.43-9.78-68.2c-6.32-46.65,1.07-104.65-22.62-146.85C1861.37,202.83,1858.16,234.79,1854.27,268.81z"/>
		<path class="st1" d="M2036.6,1600c6.29-65.4,3.86-131.63-7.26-196.37c-3.24-18.85-7.22-37.78-6.48-56.88
			c0.92-23.64,9-46.33,13.86-69.48c4.91-23.44,6.51-47.44,7.94-71.35c5.38-90.1,8.52-180.34,9.4-270.6
			c12.72,145.68,22.63,291.58,32.53,437.48c1.86,27.33,3.71,54.67,5.57,82.01c3.29,48.4,6.57,96.79,9.86,145.19H2036.6z"/>
		<path class="st1" d="M1978.77,1597.81c-0.01,0.75-0.03,1.48-0.07,2.19h-55.82c-0.07-2.47-0.14-5.23-0.28-8.32
			c-0.65-14.1-1.27-28.2-1.68-42.32c-2.66-93.51,1.4-186.98,7.09-280.32c0.13-2.26,0.27-4.52,0.42-6.79c0.1-1.69,0.2-3.38,0.31-5.07
			c0.14-2.24,0.28-4.49,0.42-6.73c1.53-24.27,3.15-48.54,4.77-72.79c4.97-74.34,9.98-149.04,26.42-221.71
			c-0.47,81.76-0.93,163.52-0.88,245.28c0,6.02,0.01,12.04,0.02,18.06c0.01,3.33,0.01,6.66,0.03,9.98c0,3.54,0.01,7.07,0.03,10.61
			c0,2.32,0.01,4.64,0.02,6.97c0.24,54.94,1.01,109.88,3.39,164.78C1965.61,1472.92,1979.73,1536.93,1978.77,1597.81z"/>
		<path class="st1" d="M1885.46,1600h-41.69c34.22-115.29,19.4-241.35,3.93-361.84c-7.1-55.4-14.38-111.46-34.93-163.4
			c-11.72-29.62-27.7-57.74-35.35-88.66c-6.33-25.58-6.73-52.19-8.71-78.47c-2.9-38.52-16.95-74.77-28.24-111.45
			c0-0.01,0-0.01,0-0.02c-3.69-11.99-7.08-24.01-9.69-36.18c0-0.01,0-0.01,0-0.02c-0.15-0.69-0.3-1.38-0.44-2.07
			c-2.78-13.42-4.58-27.01-4.75-40.9c-0.18-13.93,2.73-29.67,2.55-43.59c0.7,1.49,1.38,2.99,2.05,4.49
			c0.14,0.33,0.29,0.66,0.43,0.99c3.56,8.06,6.73,16.24,9.59,24.52v0.01c29.34,84.72,25.98,180.01,58.66,264.23
			c11.88,30.61,28.41,59.45,37.46,91.01c10.56,36.88,10.45,75.84,15.03,113.93c3.57,29.69,10.02,58.95,15.16,88.41
			C1886,1372.66,1886.64,1486.54,1885.46,1600z"/>
		<path class="st1" d="M1767.05,1600h-35.1c0-0.63,0-1.25,0.02-1.88c0.79-91.93,2.32-184.12,3.26-276.11v-0.07
			c0.06-6.31,0.13-12.61,0.18-18.91v-0.06c0.16-16.26,0.29-32.51,0.39-48.75c3.42,23.11,6.57,46.26,9.45,69.44v0.04
			C1756.68,1415.41,1763.96,1507.63,1767.05,1600z"/>
		<path class="st2" d="M2254.18,1600h-27.1c12.39-185.98,22.28-372.83,1.26-557.87c-6.05-53.3-14.66-106.35-18.41-159.87
			c-1.63-23.3-2.34-46.63-2.5-69.97c-0.02-2.99-0.03-5.98-0.03-8.97c0-2.4,0-4.8,0.01-7.21v-0.01c0.01-3.53,0.04-7.06,0.07-10.6
			c0.68-74.36,5.56-148.84,2.67-223.18c-2.56-65.78-11.18-131.15-16.88-196.73c-10.57-121.54-11.1-243.95-1.58-365.59h27.91
			c-27.96,161.01-4.95,328.76-0.36,493.42c1.87,66.93,0.65,134.11,8.59,200.59c2.64,22.11,6.29,44.06,10.39,65.94v0.01
			c0.03,0.17,0.06,0.33,0.09,0.5c0.05,0.28,0.11,0.55,0.16,0.83v0.01c0.06,0.32,0.12,0.62,0.18,0.94c0,0,0,0,0,0.01
			c9.62,51.05,21.59,101.73,28.84,153.17C2299.34,1141.28,2243.67,1372.37,2254.18,1600z"/>
		<path class="st1" d="M2331.36,1032.8c2.38-145.4-13.61-290.41-30.8-434.81c-4.5-37.74-9.08-75.52-10.72-113.49
			c-0.7-16.34-0.86-32.67-0.66-49.01c0.03-2.53,0.07-5.07,0.12-7.61c0.05-2.88,0.11-5.75,0.19-8.63c0.07-3.12,0.16-6.24,0.26-9.36
			c1.83-58.21,6.91-116.43,6.6-174.69c-0.41-78.44-10.56-157.17-5.03-235.2h33.6c3.55,62.48,6.24,125.03,3.64,187.52
			c-1.65,39.92-5.46,79.72-6.83,119.64c-0.62,18.1-0.74,36.2-0.48,54.29c0.07,5.22,0.18,10.45,0.32,15.67
			c0.12,4.99,0.28,9.99,0.46,14.98c0.1,2.75,0.2,5.5,0.31,8.24c2.76,67.69,9.55,135.31,13.86,202.96
			C2345.36,746.93,2344.48,889.47,2331.36,1032.8z"/>
		<path class="st2" d="M2500,781.29v208.28c-7.15-13.47-15.02-26.5-23.2-38.94c-1.2-1.84-2.5-3.73-4.41-4.8
			c-8.53-4.79-14.8,9.02-15.63,18.77c-3.91,45.97-26.39,87.93-41.7,131.44c-22.01,62.53-29.39,129.18-34.16,195.3
			c-7.36,102.01-8.89,204.45-4.56,306.64c0.03,0.67,0.05,1.34,0.07,2.02h-51.09c6.62-130.12,20.62-259.87,41.92-388.41
			c5.92-35.75,12.41-71.46,15.48-107.56c2.75-32.45,2.73-65.09,5.43-97.54c4.27-51.32,15.32-101.8,26.34-152.1
			c10.43-47.64,20.87-95.27,31.3-142.9c1.12-5.12,4.05-11.57,9.23-10.78c2.89,0.45,4.83,3.14,6.39,5.62
			C2476.47,730.1,2489.39,755.23,2500,781.29z"/>
		<path class="st1" d="M2462.5,73.42c-1.51,59.33,1.68,118.77-2.92,178.01c-8.92,114.7-46.72,225.22-62.49,339.17
			c-14.23-68.08-28.49-138.56-13.98-206.58c5.03-23.55,13.42-46.27,18.81-69.74c6.51-28.33,8.58-57.47,10.63-86.47
			c3.64-51.57,7.24-103.98-3.77-154.5c-5.29-24.3-13.96-48.82-12.94-73.31h73.35C2467.75,24.3,2463.12,49.14,2462.5,73.42z"/>
		<path class="st1" d="M2500,1140.87v156.32c-8.58,9.66-17.03,19.37-22.51,30.99c-6.19,13.11-8.15,27.77-9.88,42.16
			c-9.16,76.3-11.64,152.88-11.51,229.66h-31.04c6.2-148.49,21.74-296.6,46.5-443.15c2.82-16.69,5.76-33.37,8.7-50.05
			C2487.79,1117.56,2494.4,1128.98,2500,1140.87z"/>
		<path class="st2" d="M2189.79,1442c25.89-131.49,25.4-268.13-1.43-399.43c1.39,39.61-3.63,77.79-7.11,117.27
			c-1.6,18.15-3.72,36.27-4.24,54.48c-0.49,17.06,0.43,34.13,1.35,51.17C2181.59,1325.36,2186.57,1382.12,2189.79,1442z"/>
		<path class="st3" d="M2017.18,1170.52c0,0,5.7,15.13-17.32,39.15c-23.02,24.02-32.76,32.03-50.41,44.54
			c-17.65,12.51-63.26,43.09-63.26,43.09s47.61-45.6,71.13-66.11C1980.85,1210.68,2017.18,1170.52,2017.18,1170.52z"/>
		<path class="st4" d="M1886.2,1297.31c25.69-27.65,60.66-44.83,88.68-70.12c14.5-13.09,39.47-36.65,42.31-56.67
			c-24.97,12.31-48.22,39.52-67.88,59.21C1927.51,1251.54,1906.8,1274.4,1886.2,1297.31z"/>
		<path class="st3" d="M2240.09,758.4c0,0-10.34,30.07-28.48,49.31c-18.13,19.24-70.33,85.73-70.33,85.73l4.93-26.93
			C2146.22,866.51,2219.11,782.72,2240.09,758.4z"/>
		<path class="st3" d="M2371.84,313.18c0,0-0.13,22.1-15.56,45.25c-15.43,23.15-30.31,37.47-46.84,56.21
			c-16.53,18.74-57.74,56.04-57.74,56.04s40.1-54.94,54.43-73.68C2320.46,378.26,2371.84,313.18,2371.84,313.18z"/>
		<path class="st4" d="M2326.34,355.04c-9,10.78-16.48,22.72-23.93,34.62c-16.91,27.01-33.81,54.01-50.72,81.02
			c39.85-50.82,99.1-96.44,120.14-157.5C2374.15,306.48,2340.12,338.53,2326.34,355.04z"/>
		<path class="st3" d="M1942.96,191.67c0,0-11.59,21.91-21.15,35.3c-9.56,13.39-17.19,30.6-34.73,46.53
			c-17.54,15.94-81.66,58.08-81.66,58.08s67.32-68.28,81.66-85.49S1942.96,191.67,1942.96,191.67z"/>
		<path class="st4" d="M1942.96,191.67c-19.56,2.31-37.43,12.78-51.91,26.14c-14.48,13.36-25.97,29.56-37.36,45.64
			c-16.09,22.71-32.18,45.43-48.26,68.14c21.78-18.5,42.02-35.05,63.8-53.55c8.78-7.46,17.6-14.95,25.05-23.74
			c6.03-7.11,11.09-14.97,16.38-22.65C1921.31,216.17,1929.61,204.9,1942.96,191.67z"/>
		<g>
			<g>
				<path class="st3" d="M425.49,886.33c-0.03,21.46-0.07,43.13-0.13,64.99c-0.11,35.58-0.26,71.68-0.46,108.2v0.01
					c-0.2,33.83-0.43,68.04-0.72,102.54v0.01c-1.19,142.52-3.25,290.09-6.52,437.92h-12c3.42-154.44,5.52-308.6,6.68-457.01
					c0.28-35.94,0.51-71.54,0.69-106.73v-0.01c0.17-34.02,0.29-67.65,0.38-100.82c0.06-24.74,0.1-49.21,0.12-73.41v-0.01
					c0.03-46.03-0.01-91.04-0.12-134.83c-0.02-10.67-0.05-21.28-0.08-31.8C412.23,339.71,407.1,70.6,405.63,0h12
					c1.5,72.26,6.77,349.2,7.74,713.52c0.02,8.04,0.04,16.12,0.06,24.25C425.54,785.92,425.57,835.53,425.49,886.33z"/>
				<path class="st3" d="M868.12,1600h-15.03c-11.35-177.12-14.74-523.56-15.05-850.63v-6.67c-0.01-11.2-0.02-22.36-0.02-33.5
					c-0.06-330.4,2.86-632.79,3.66-709.2h15c-0.79,75.55-3.68,374.27-3.67,701.97c0,6.31,0,12.64,0.01,18.97v18.58
					C853.27,1069.81,856.62,1421.76,868.12,1600z"/>
				<path class="st3" d="M1308.59,0c-0.01,42.82-0.04,157.03-0.16,307.89c-0.25,333.14-0.96,845.05-2.87,1161.81
					c-0.02,4.64-0.05,9.25-0.08,13.8c-0.05,7.45-0.09,14.79-0.14,22v0.01c-0.03,4.42-0.06,8.78-0.09,13.11
					c-0.2,29.39-0.42,56.64-0.65,81.38h-12c0.21-21.79,0.4-45.53,0.58-70.96c0.02-3.71,0.05-7.46,0.07-11.25
					c0.06-8.43,0.12-17.03,0.18-25.81c0.03-5.09,0.06-10.24,0.09-15.45c0.02-2.55,0.03-5.13,0.04-7.71v-0.06
					c0.11-15.83,0.2-32.15,0.28-48.91c1.78-334.04,2.41-842.62,2.63-1156.97c0.09-128.42,0.11-224.43,0.12-262.88H1308.59z"/>
				<path class="st3" d="M1749.67,1600h-10.01c-0.92-49.24-2.67-148.97-4.43-277.99v-0.07c-2.14-157.28-4.28-358.08-4.89-564.05
					c-0.08-26.61-0.13-53.3-0.15-80c-0.23-247.64,2.01-495.6,9.35-677.89h10.01c-7.6,188.45-9.75,447.29-9.34,703.4v0.01
					c0.06,31,0.14,61.96,0.26,92.75c0,0.01,0,0.01,0,0.02c0.75,193.2,2.77,379.71,4.78,527.48v0.04
					C1747,1451.98,1748.75,1551.06,1749.67,1600z"/>
				<path class="st3" d="M2155.12,1600h-15c1.61-179.49,1.58-457.93,0.93-733.56v-0.05c-0.12-52.6-0.27-105.1-0.43-156.79v-0.64
					c-1.05-333.55-2.75-633.24-3.19-708.96h15c0.5,85.26,2.57,452.88,3.54,833.62c0.02,7.2,0.04,14.41,0.05,21.61v0.01
					c0.01,2.6,0.02,5.18,0.02,7.77l0.03,11.76C2156.7,1147.64,2156.71,1422.26,2155.12,1600z"/>
			</g>
		</g>
		<g>
			<g>
				<path class="st4" d="M415.95,866.94v0.01c-0.02,23.61-0.06,47.48-0.12,71.6c-0.09,33.41-0.21,67.29-0.39,101.55v0.01
					c-0.18,35.7-0.42,71.81-0.71,108.28c-1.17,146.74-3.26,299.04-6.63,451.61h-12.01c11.32-512.37,8.21-1021.59,4.36-1328.17
					c-0.04-3.03-0.08-6.03-0.12-9.02c-0.04-3.29-0.08-6.56-0.12-9.8c-0.1-7.3-0.19-14.48-0.28-21.53
					c-1.57-115.63-3.15-197.1-3.87-231.48h12.01c1.48,71.37,6.64,342.45,7.71,700.18v0.01c0.02,9.63,0.05,19.32,0.07,29.08
					C415.96,773.96,416,819.91,415.95,866.94z"/>
				<path class="st4" d="M858.56,1600h-15.03c-2.77-43.18-5.06-96.4-6.96-156.97v-0.01c-0.79-25.28-1.51-51.85-2.16-79.49
					c0-0.01,0-0.01,0-0.02c-1.53-64.69-2.71-135.29-3.6-209.26v-0.01c-0.61-51.22-1.08-104.05-1.44-157.65
					c-0.11-16.06-0.21-32.2-0.29-48.38c-0.04-7.68-0.08-15.38-0.12-23.08v-0.01c-0.53-112.5-0.6-226.69-0.41-334.93v-0.01
					c0.07-34.77,0.16-68.92,0.27-102.21v-0.01c0.11-29.6,0.22-58.51,0.35-86.57v-0.01c0.03-7.42,0.07-14.78,0.1-22.07
					C830.19,193.9,831.6,49.51,832.12,0h15c-0.79,75.91-3.71,377.11-3.67,706.64c0,6.79,0,13.58,0.01,20.39v14.01
					c0.01,1.6,0.01,3.2,0.01,4.8C843.75,1074.29,847.14,1422.9,858.56,1600z"/>
				<path class="st4" d="M1299.03,0c-0.01,39.35-0.03,138.95-0.13,271.89c-0.24,332.97-0.94,875.02-2.93,1202.93
					c-0.03,5.2-0.07,10.35-0.1,15.45c-0.05,8.19-0.1,16.23-0.15,24.12c-0.04,4.22-0.07,8.4-0.1,12.54
					c-0.18,26.23-0.38,50.68-0.59,73.07h-12c0.23-24.7,0.45-51.89,0.65-81.22c0.31-45.48,0.6-96.08,0.86-150.43v-0.01
					c0.21-45.17,0.41-92.93,0.59-142.49c0.46-129.59,0.82-271.5,1.08-411.62c0.1-48.77,0.18-97.31,0.26-145.05v-0.01
					c0.04-30.96,0.08-61.58,0.12-91.7c0.08-56.89,0.14-111.99,0.19-164.21c0.02-16.61,0.03-32.93,0.05-48.92
					c0.16-178.56,0.19-316.32,0.2-364.34H1299.03z"/>
				<path class="st4" d="M1740.11,1600h-10.01c-2.07-111.1-8.42-479.13-9.38-860.89c-0.67-267.52,1.31-541.79,9.25-739.11h10.01
					c-7.36,182.44-9.6,430.85-9.36,678.88c0.02,27.06,0.08,54.12,0.16,81.08c0,0.01,0,0.01,0,0.02
					c0.6,197.05,2.59,389.26,4.63,542.99v0.06C1737.26,1441.32,1739.14,1548.47,1740.11,1600z"/>
				<path class="st4" d="M2145.55,1600h-15c1.3-143.86,1.53-351.3,1.24-569.91c-0.33-249.19-1.35-512.9-2.28-713.51v-0.03
					c-0.72-155.46-1.39-273.01-1.64-316.55h15c0.5,85.96,2.61,458.88,3.56,842.91c0.02,7.76,0.03,15.53,0.05,23.3
					c0.01,3.37,0.02,6.75,0.02,10.13c0.01,3.48,0.02,6.97,0.03,10.46C2147.14,1155.69,2147.13,1424.88,2145.55,1600z"/>
			</g>
		</g>
		<path class="st4" d="M2142.04,882.88c16.38-24.46,34.84-47.51,55.13-68.83c6.4-6.73,13-13.3,18.86-20.5
			c8.35-10.27,17.74-23.52,24.06-35.14c-10.68,8.87-21.36,17.75-32.04,26.62c-5.64,4.69-11.28,9.38-16.49,14.54
			c-8.58,8.52-15.93,18.29-25.22,26.02c-8.13,6.76-17.99,12.28-22.65,21.76c-5.4,10.97,0.18,23.54-1.32,35.67
			C2143.3,881.48,2141.04,884.37,2142.04,882.88z"/>
		<path class="st4" d="M1291.72,1520.47c5.14-10.09,15.34-16.38,24.85-22.52c25.08-16.2,48.59-34.83,70.11-55.53
			c10.32-9.93,20.25-20.39,32-28.58c12.56-8.75,26.91-14.67,39.55-23.31c12.73-8.7,23.48-19.95,34.03-31.2
			c20-21.33,39.69-42.94,59.06-64.85c-35.93,36.17-79.45,63.7-124.93,86.73c-11.76,5.95-23.91,11.51-34.06,19.92
			c-9.93,8.23-17.53,18.86-26.29,28.32c-13.75,14.85-30.51,26.91-48.97,35.22c-9.99,4.5-20.85,8.16-28.36,16.13
			C1287.66,1495.07,1290.72,1506.19,1291.72,1520.47z"/>
		<path class="st4" d="M837.48,749.74c12.42-22.97,40.73-31.09,61.84-46.46c6.73-4.9,12.81-10.63,18.7-16.52
			c17.87-17.86,34.16-37.31,48.61-58.03c-39.52,32.11-83.03,59.3-129.21,80.75C838.2,722.42,836.71,736.8,837.48,749.74z"/>
	</g>
</g>
</svg>
