<svg xmlns="http://www.w3.org/2000/svg" viewBox="0 0 109.78 112.14"><defs><style>.cls-1{fill:#020202;}</style></defs><g id="Calque_2" data-name="Calque 2"><g id="Calque_1-2" data-name="Calque 1"><path class="cls-1" d="M105.08,46.56a6.74,6.74,0,0,0,.83,2.4c-2.52-1-4-3-6.13-4l-.41-.33c-.19-.06-.39-.23-.55.05l.41.11.34.36c.1.12.22.23.31.36.27.36.89.77.4,1.17a1.41,1.41,0,0,1-1.67.1c-.45-.32-.85-.72-1.29-1.06s-.79-.43-1.19.13-.34.85.21,1.23a11,11,0,0,1,1.27,1.11c.17.31.08.3,0,.35-1.13,1.17-2,.42-2.91-.33a8.9,8.9,0,0,0-4.55-2c-.35-.05-.89-.37-1,.37s.41.68.79.78a12.44,12.44,0,0,1,5.38,2.51c-1.67.39-1.67.39-3.25-.43a7.12,7.12,0,0,0-5.6-.78c.74.29,1.49,0,2.19.31a10.3,10.3,0,0,1-4,.84,13.73,13.73,0,0,0-5.81,1.67c-1.84,1.14-2,2.27-.53,3.85a24.53,24.53,0,0,0,9.23,6.27,25.8,25.8,0,0,1,10.05,6.32c8.67,9.41,9.29,23.58,1.43,34.18-4.86,6.55-11.29,10.12-19.55,10-4.7,0-9-1.7-13.14-3.72a37.78,37.78,0,0,1-8.17-5.33c.08-.13.1-.23.14-.24,1.74-.63,1.74-.62.61-2.06a11.46,11.46,0,0,1-2.25-3.92,2.86,2.86,0,0,1-.11-1.42,1.78,1.78,0,0,1,1-1.31c.56-.24.79.37,1.14.65,2.41,1.92,4.62,4.09,7.39,5.52.37.19.72.56,1.27.27A11.58,11.58,0,0,0,65,98.25a19,19,0,0,1-3.76-3.67c-1-1.43-.82-1.88.85-2.35,1-.28,1.1-.72.43-1.52-.82-1-1.64-2-2.43-3-.27-.35-.82-.65-.53-1.22s.76-.33,1.19-.36c.15,0,.3-.06.54-.11a26.79,26.79,0,0,0-2.46-4.27c-1.78-2.7-3.63-5.35-5.24-8.16-.34-.6-.37-1,.14-1.43s.94.14,1.25.48A8.73,8.73,0,0,1,55.83,74,86.37,86.37,0,0,0,67,88.87a23.83,23.83,0,0,0,11.47,6.38A6,6,0,0,0,83.9,94a11.52,11.52,0,0,0,3.66-12.77,6.71,6.71,0,0,0-4-4.32,46.52,46.52,0,0,1-11.52-6,36.35,36.35,0,0,1-9-9.51c-3.83-6.19-3.22-13,1.74-18.31,4.2-4.52,9.57-7,15.51-8.22,6.86-1.39,13.55-.89,19.71,2.76a20,20,0,0,1,9.43,11.78c.21.7.7,1.82.1,2.08s-1-.88-1.42-1.46a22.21,22.21,0,0,0-2.79-3.56c0-.12-.09-.22-.21-.13S105.07,46.46,105.08,46.56Z"/><path class="cls-1" d="M13.35,33.38c.13.16.24.44.38.45,1.44.11,1.34,1.27,1.55,2.22A40,40,0,0,0,17,42.75c.45-.27,0-.7.23-1.09a3.27,3.27,0,0,1,1.34,2c.77,2.13,1.36,4.34,2.2,6.45a63.88,63.88,0,0,0,9.15,15.66c.59.75,1.15.65,1.8-.28a76.29,76.29,0,0,0,4.5-7.21,262.57,262.57,0,0,0,11.9-25.86c2.29-5.58,4.81-11,7.39-16.5.12-.24.26-.48.4-.73,1.44,1.28,1.44,1.28,2.76-.3A10.24,10.24,0,0,1,60.55,13a2.75,2.75,0,0,1,1.65-.64c1.35,0,1.58.49,1.19,1.77-.79,2.57-2,5-2.87,7.51-.11.33-.16.68-.3,1.26a7.44,7.44,0,0,0,2-2.52,35.88,35.88,0,0,1,2.37-4.29c1-1.32,1.48-1.32,2.42-.06.7.94,1.1.92,1.61-.1s1.07-2.23,1.64-3.33c.18-.37.24-.94.81-.93s.64.53.86.9c.08.13.18.26.3.43a12.54,12.54,0,0,0,1.83-2.67C75.91,7.27,77.35,4,79,.85c.3-.6.6-1,1.34-.76s.43,1,.23,1.41C79.35,4,78.14,6.55,76.91,9.06,70.84,21.48,65.52,34.24,60.15,47a139.41,139.41,0,0,1-18,30.69c-2.25,2.93-4.84,5.32-8.6,6.06a12.44,12.44,0,0,1-11.88-3.51A63.24,63.24,0,0,1,8,59.54C4.17,50.23,1.13,40.72,0,30.67a8.92,8.92,0,0,1,0-1.55c0-.3,0-.73.34-.82s.54.29.68.55C1.69,30,2.3,31.25,3,32.52c.51-.55.28-1.24.36-2C5.41,31.65,6,33.72,7,35.62c.27-.3.1-.6.08-.88,0-.45-.3-1.14.34-1.17s1.33,0,1.42.94a9.77,9.77,0,0,0,.28,1.16c.14.66.51.75,1.15.62s.6-.54.47-1-.24-1.08-.37-1.69c0,0,0-.05.05-.06,1.85-.26,1.84-.26,2.21,1.59A44.82,44.82,0,0,0,13.93,41c.12.35.05,1,.78.8s.44-.71.33-1.14c-.51-2.05-1-4.1-1.57-6.14a1.58,1.58,0,0,1-.07-1.17Z"/><path class="cls-1" d="M13.4,33.39l-.06,0s0,0,0-.06Z"/></g></g></svg>